<?xml version="1.0" encoding="utf-8"?>
<!-- Generator: Adobe Illustrator 21.1.0, SVG Export Plug-In . SVG Version: 6.00 Build 0)  -->
<svg version="1.1" id="Layer_1" xmlns="http://www.w3.org/2000/svg" xmlns:xlink="http://www.w3.org/1999/xlink" x="0px" y="0px"
	 viewBox="0 0 297.6 377.7" style="enable-background:new 0 0 297.6 377.7;" xml:space="preserve">
<style type="text/css">
	.st0{fill:url(#SVGID_1_);}
	.st1{fill:#FFFFFF;}
	.st2{enable-background:new    ;}
	.st3{fill:#231F20;}
</style>
<title>T-APP_Logo_login_english</title>
<linearGradient id="SVGID_1_" gradientUnits="userSpaceOnUse" x1="420.94" y1="-33.4" x2="420.94" y2="264.24" gradientTransform="matrix(1 0 0 -1 -272.12 264.24)">
	<stop  offset="0" style="stop-color:#EF4480"/>
	<stop  offset="0.5" style="stop-color:#EF4480"/>
	<stop  offset="1" style="stop-color:#4452A3"/>
</linearGradient>
<path class="st0" d="M0,227.3c0.1,38.8,31.5,70.2,70.3,70.3h157c38.5,0,70.3-31.9,70.3-70.3v-157c0-38.5-31.8-70.3-70.3-70.3h-157
	C31.5,0.1,0.1,31.5,0,70.3V227.3z"/>
<path class="st1" d="M148.7,67.5c12.2,0,22.1,9.9,22.1,22.1c0.2,12.1-9.4,22-21.5,22.2c-0.2,0-0.4,0-0.6,0
	c-12.8,0-22.2-9.5-22.2-22.2c-0.1-12.1,9.6-22,21.6-22.1C148.3,67.5,148.5,67.5,148.7,67.5z"/>
<path class="st1" d="M142,266.7c0-3.7,3-6.7,6.7-6.7c3.6,0.1,6.4,3.1,6.3,6.7c0.2,3.5-2.6,6.5-6.1,6.7c-0.1,0-0.1,0-0.2,0
	C145,273.4,142,270.5,142,266.7C141.9,266.7,141.9,266.7,142,266.7z"/>
<path class="st1" d="M99.4,86.2c-4.6,0-8.3,3.7-8.3,8.3v22.1h7.3V99.1c0-2.7,1.9-5.5,5-5.5h18.6v-7.4H99.4z"/>
<path class="st1" d="M200.1,120c-32.3,0-48,19-48,60.8v67.5c0,10.8,7.3,9.7,7.3,18.5c0,6.1-5.1,11.3-10.8,11.3
	c-6.2-0.1-11.2-5.1-11.3-11.3c0-8.7,7.3-7.7,7.3-18.5v-67.5c0-41.8-15.4-60.8-48-60.8H28.6c0,18.4,8.4,33.5,26.8,33.5h41.3
	c34.5,0,37.2,17.8,37.2,36.9v63.6c0,3.1-1.9,5.5-4.6,5.5h-26c-3.1,0-5-2.4-5-5.5v-97.1h-7.3v116.3c0,4.6,3.7,8.3,8.3,8.3h98.1
	c4.6,0,8.3-3.7,8.3-8.3V156.9h-7.3v97c0,3.1-1.9,5.5-4.6,5.5h-25.8c-3.1,0-5-2.4-5-5.5v-63.6c0-19.1,2.7-36.9,37.2-36.9h41.3
	c18.5,0,26.8-15,26.8-33.5L200.1,120z M125.3,271.7c0,1.2-1,2.2-2.2,2.2h0h-13.8c-1.2,0-2.2-1-2.2-2.2v0v-2.6c0-1.2,1-2.2,2.2-2.2
	h13.8c1.2,0,2.2,1,2.2,2.2L125.3,271.7z M173.1,269.1c0-1.2,1-2.2,2.2-2.2H189c1.2,0,2.2,1,2.2,2.2v0v2.6c0,1.2-1,2.2-2.2,2.2h0
	h-13.8c-1.2,0-2.2-1-2.2-2.2v0L173.1,269.1z"/>
<path class="st1" d="M118.2,19.9h7.8c0.6,0,1.1,0.5,1.1,1.1v7.8c0,0.6-0.5,1.1-1.1,1.1h-7.8c-0.6,0-1.1-0.5-1.1-1.1V21
	C117.1,20.3,117.6,19.9,118.2,19.9z"/>
<path class="st1" d="M267.7,83.4h-18.4c-1.4,0-2.6,1.2-2.6,2.6v18.4c0,1.4,1.2,2.6,2.6,2.6h18.4c1.4,0,2.6-1.2,2.6-2.6V86
	C270.3,84.5,269.2,83.4,267.7,83.4z M258.5,106.2c-6.1,0-11-4.9-11-11s4.9-11,11-11s11,4.9,11,11S264.6,106.2,258.5,106.2z
	 M256.5,102h-3.9c-0.2,0-0.2,0-0.2-0.2c0-2.3,0-4.7,0-7c0-0.1,0.1-0.2,0.2-0.3l5.8-3.2c0.1-0.1,0.2-0.1,0.3,0l5.8,3.2
	c0.1,0,0.2,0.2,0.2,0.3c0,2.3,0,4.6,0,7c0,0.2,0,0.2-0.2,0.2h-3.9V97c0-0.3,0-0.3-0.3-0.3h-3.3c-0.3,0-0.3,0-0.3,0.3L256.5,102
	L256.5,102z M262.5,90.7l-3.8-2.3c-0.1-0.1-0.3-0.1-0.4,0l-2.1,1.3l-5.7,3.6c-0.2,0.1-0.2,0.1-0.1,0.4l0.5,0.8
	c0.2,0.3,0.2,0.3,0.4,0.1l7.1-4.3c0.1-0.1,0.2-0.1,0.3,0c0.3,0.2,0.5,0.3,0.8,0.5l6.3,3.8c0.2,0.1,0.2,0.1,0.4-0.1l0.5-0.9
	c0.1-0.2,0.1-0.2-0.1-0.4l-1.8-1.1c-0.1,0-0.2-0.1-0.1-0.3c0-0.9,0-1.8,0-2.6c0-0.2,0-0.3-0.3-0.3H263c-0.4,0-0.4,0-0.4,0.4
	s0,1,0,1.5L262.5,90.7z"/>
<path class="st1" d="M194.9,51.2H186c-1.6-0.1-3.2-0.7-4.4-1.8l-5-4.9c-1.1-1.2-1.7-2.8-1.8-4.4V18.8c0-1.4-1.2-2.6-2.6-2.6H148
	c-1.4,0-2.6,1.2-2.6,2.6v24.2c0,1.4,1.2,2.6,2.6,2.6h21.3c1.6,0.1,3.2,0.7,4.4,1.8l4.9,4.9c1.1,1.2,1.7,2.8,1.8,4.4v8.9
	c0,1.4,1.2,2.5,2.6,2.5h11.9c1.4,0,2.6-1.2,2.6-2.6V53.8C197.5,52.4,196.3,51.2,194.9,51.2z M160.1,43.7c-7.1,0-12.8-5.7-12.8-12.7
	c0-7.1,5.7-12.8,12.7-12.8s12.8,5.7,12.8,12.7c0,0,0,0,0,0.1C172.9,38,167.2,43.7,160.1,43.7L160.1,43.7z M152.5,24.2h-2.1v-1.5h5.9
	v1.5h-2.1v6.2h-1.7V24.2z M158.2,28.5l-0.5,2h-1.8l2.3-7.7h2.3l2.4,7.7H161l-0.6-2H158.2z M160.1,27.2l-0.5-1.6
	c-0.1-0.4-0.3-1-0.4-1.5l0,0c-0.1,0.5-0.2,1-0.4,1.5l-0.5,1.6H160.1z M167.6,30.4l-0.7-1.4c-0.3-0.5-0.5-0.9-0.7-1.4l0,0
	c-0.2,0.4-0.4,0.8-0.6,1.4l-0.6,1.4h-2l2.2-3.9l-2.1-3.8h2l0.7,1.4c0.2,0.5,0.4,0.8,0.6,1.3l0,0c0.2-0.5,0.3-0.8,0.5-1.3l0.6-1.4h2
	l-2.2,3.7l2.3,3.9L167.6,30.4z M167.8,39.2h-15.5c-0.7,0-1.2-0.6-1.2-1.2c0-0.7,0.6-1.2,1.2-1.2h15.6c0.7,0,1.2,0.6,1.2,1.2
	C169.1,38.6,168.5,39.2,167.8,39.2L167.8,39.2z M167.8,34.7h-15.5c-0.7,0-1.2-0.6-1.2-1.2c0-0.7,0.6-1.2,1.2-1.2h15.6
	c0.7,0,1.2,0.6,1.2,1.2S168.5,34.7,167.8,34.7C167.8,34.7,167.8,34.7,167.8,34.7L167.8,34.7z"/>
<path class="st1" d="M109.8,34.2H98.4c-1.4,0-2.5,1.1-2.5,2.5v8.5c-0.1,1.6-0.7,3-1.7,4.2l-4.7,4.7c-1.2,1-2.6,1.7-4.2,1.7H64.9
	c-1.4,0-2.5,1.1-2.5,2.5v23.3c0,1.4,1.1,2.5,2.5,2.5h23.3c1.4,0,2.5-1.1,2.5-2.5V61.2c0.1-1.6,0.7-3,1.7-4.2l4.8-4.7
	c1.2-1,2.6-1.7,4.2-1.7h8.5c1.4,0,2.5-1.1,2.5-2.5V36.7C112.3,35.3,111.2,34.2,109.8,34.2z M76.5,83.2c-7.3,0-13.3-5.9-13.3-13.3
	c0-7.3,5.9-13.3,13.3-13.3c7.3,0,13.3,5.9,13.3,13.3C89.7,77.3,83.8,83.2,76.5,83.2L76.5,83.2z"/>
<path class="st1" d="M85.6,63.6H67.3c-0.8,0-1.5,0.7-1.5,1.5v9.8c0,0.8,0.7,1.5,1.5,1.5h18.3c0.8,0,1.5-0.7,1.5-1.5v-9.8
	C87.1,64.3,86.5,63.6,85.6,63.6z M67.5,65.6h9.2c0.3,0,0.6,0.3,0.6,0.6c0,0.3-0.3,0.6-0.6,0.6c0,0,0,0,0,0h-9.2
	c-0.3,0-0.6-0.3-0.6-0.6C66.9,65.9,67.2,65.6,67.5,65.6C67.5,65.6,67.5,65.6,67.5,65.6z M67.5,69.3h9.2c0.3,0,0.6,0.3,0.6,0.6
	c0,0.3-0.3,0.6-0.6,0.6h-9.2c-0.3,0-0.6-0.3-0.6-0.6C66.9,69.6,67.2,69.4,67.5,69.3C67.5,69.3,67.5,69.3,67.5,69.3z M74.2,74.3h-6.6
	c-0.3,0-0.6-0.3-0.6-0.6c0-0.3,0.3-0.6,0.6-0.6c0,0,0,0,0,0h6.6c0.3,0,0.6,0.3,0.6,0.6C74.8,74.1,74.5,74.3,74.2,74.3z M85.8,75.2
	h-9.3v-1.8c0-0.8,0.7-1.5,1.5-1.5c0,0,0.1,0,0.1,0h1.6c0.4,0,0.4-0.1,0.4-0.4v-0.6c-0.6-0.4-1.1-1.1-1.2-1.8h-0.1
	c-0.3,0-0.5-0.4-0.5-0.9s0.3-0.9,0.5-0.9c0.2-1.6,1.2-2.8,2.3-2.8s2.1,1.2,2.3,2.8c0.3,0,0.5,0.4,0.5,0.9s-0.3,0.9-0.5,0.9h-0.1
	c-0.2,0.7-0.6,1.4-1.2,1.8v0.6c0,0.3,0,0.4,0.4,0.4h1.6c0.8,0,1.6,0.6,1.6,1.4c0,0,0,0.1,0,0.1L85.8,75.2z"/>
<path class="st1" d="M78.4,16.2H61.3c-1.3,0-2.4,1.1-2.4,2.4v17.1c0,1.3,1.1,2.4,2.4,2.4h17.1c1.3,0,2.4-1.1,2.4-2.4V18.7
	C80.9,17.3,79.8,16.2,78.4,16.2z M69.9,37.3c-5.6,0-10.1-4.5-10.1-10.1s4.5-10.1,10.1-10.1c5.6,0,10.1,4.5,10.1,10.1c0,0,0,0,0,0
	C80,32.8,75.5,37.3,69.9,37.3z M72.3,25.5c-0.3,2.2-2,3.5-4.5,3.6c1.6,1.6,3.4,3.8,5.1,5.9H70c-1.5-1.8-3.1-3.8-5-5.8v-1.8h1.3
	c2.1,0,3.2-0.8,3.4-2H65v-1.3h4.6c-0.3-1-1.3-1.6-3-1.6H65v-1.9h9.6V22h-3.5c0.6,0.6,0.9,1.3,1,2.1h2.5v1.3H72.3z"/>
<path class="st1" d="M248.4,35.5h7.8c0.6,0,1.1,0.5,1.1,1.1v7.8c0,0.6-0.5,1.1-1.1,1.1h-7.8c-0.6,0-1.1-0.5-1.1-1.1v-7.8
	C247.3,36,247.8,35.5,248.4,35.5z"/>
<path class="st1" d="M42.4,49.2h10.1c0.8,0,1.4,0.6,1.4,1.4v10.1c0,0.8-0.6,1.4-1.4,1.4H42.4c-0.8,0-1.4-0.6-1.4-1.4V50.6
	C41,49.8,41.6,49.2,42.4,49.2z"/>
<path class="st1" d="M128.1,53.2H116c-0.9,0-1.7,0.8-1.7,1.7v12.2c0,1,0.8,1.7,1.7,1.7h12.2c1,0,1.7-0.8,1.7-1.7l0,0V55
	C129.9,54,129.1,53.2,128.1,53.2L128.1,53.2z M122.1,67.6c-3.6,0-6.5-2.9-6.5-6.5s2.9-6.5,6.5-6.5s6.5,2.9,6.5,6.5l0,0
	C128.6,64.7,125.7,67.6,122.1,67.6C122.1,67.6,122.1,67.6,122.1,67.6L122.1,67.6z"/>
<path class="st1" d="M240.3,48.9h-25.9c-1.5,0-2.7,1.2-2.7,2.7v22.7c-0.1,1.7-0.8,3.4-1.9,4.7l-5.3,5.3c-1.3,1.1-2.9,1.8-4.6,1.9h-2
	h-0.4h-22.6v7.4h18.6c3.1,0,5,2.7,5,5.5v17.5h7.3V94.5c0-0.1,0-0.2,0-0.3v-2.1c0.1-1.7,0.8-3.4,1.9-4.7l5.3-5.3
	c1.3-1.2,3-1.8,4.7-1.9h22.7c1.5,0,2.7-1.2,2.7-2.7V51.7c0-1.5-1.2-2.8-2.7-2.8C240.4,48.9,240.4,48.9,240.3,48.9z M227.4,79.3
	c-8,0-14.6-6.5-14.6-14.6c0-8,6.5-14.6,14.6-14.6S242,56.7,242,64.7S235.5,79.3,227.4,79.3L227.4,79.3L227.4,79.3z"/>
<path class="st1" d="M236.6,59.2c0.5-0.3,0.6-0.9,0.3-1.4c-0.2-0.3-0.5-0.5-0.9-0.5h-17.3c-0.6,0-1,0.4-1,1c0,0.3,0.2,0.7,0.5,0.9
	l-2.5,7v1.4h6.3v-1.4l-2.5-6.8h5v7l-1.7,9.8c-0.1,0.7,0.4,1.4,1.1,1.6h0.2c0.7,0,1.2-0.5,1.3-1.1l1.7-9.7h0.7l1.7,9.7
	c0.1,0.6,0.7,1.1,1.3,1.1h0.2c0.7-0.1,1.2-0.8,1.1-1.6l-1.7-9.8v-7h5l-2.5,6.8v1.4h6.3v-1.4L236.6,59.2z M221.2,65.6h-4.8l2.3-6.2
	h0.1L221.2,65.6z M233.6,65.6l2.2-6.2h0.2l2.3,6.2L233.6,65.6z M227.4,56.5c1.4,0,2.4-1.1,2.4-2.5s-1.1-2.4-2.5-2.4
	c-1.4,0-2.4,1.1-2.4,2.4C225,55.4,226,56.5,227.4,56.5C227.4,56.5,227.4,56.5,227.4,56.5L227.4,56.5z"/>
<path class="st1" d="M53.6,89H36c-1.4,0-2.5,1.1-2.5,2.5v17.6c0,1.4,1.1,2.5,2.5,2.5h17.6c1.4,0,2.5-1.1,2.5-2.5V91.5
	C56.1,90.1,55,89,53.6,89z M44.8,111c-5.9,0-10.7-4.8-10.7-10.7c0-5.9,4.8-10.7,10.7-10.7c5.9,0,10.7,4.8,10.7,10.7
	C55.6,106.2,50.8,111,44.8,111C44.9,111,44.9,111,44.8,111L44.8,111z M52.2,95.1H37.5c-0.7,0-1.2,0.6-1.2,1.2v7.9
	c0,0.7,0.5,1.2,1.2,1.2h14.7c0.7,0,1.2-0.5,1.2-1.2l0,0v-7.9C53.4,95.7,52.9,95.2,52.2,95.1C52.2,95.1,52.2,95.1,52.2,95.1
	L52.2,95.1z M37.7,96.7h7.4c0.3,0.1,0.5,0.3,0.4,0.6c0,0.2-0.2,0.4-0.4,0.4h-7.4c-0.3,0.1-0.5-0.1-0.6-0.4c-0.1-0.3,0.1-0.5,0.4-0.6
	C37.5,96.7,37.6,96.7,37.7,96.7z M37.7,99.7h7.4c0.3,0.1,0.5,0.3,0.4,0.6c0,0.2-0.2,0.4-0.4,0.4h-7.4c-0.3,0.1-0.5-0.1-0.6-0.4
	c-0.1-0.3,0.1-0.5,0.4-0.6C37.5,99.7,37.6,99.7,37.7,99.7z M45.1,103.7h-7.4c-0.3,0.1-0.5-0.1-0.6-0.4c-0.1-0.3,0.1-0.5,0.4-0.6
	c0.1,0,0.1,0,0.2,0h7.4c0.3,0.1,0.5,0.3,0.4,0.6C45.4,103.5,45.3,103.7,45.1,103.7z M52.3,101.5l-0.5,0.3c-0.1,0.1-0.2,0.2-0.3,0.4
	c0,0.2,0,0.4-0.1,0.6c0,0.2-0.2,0.4-0.5,0.4l0,0l-0.6-0.1h-0.1c-0.1,0-0.3,0.1-0.3,0.2l-0.4,0.4c-0.1,0.1-0.2,0.1-0.3,0.1
	c-0.1,0-0.2-0.1-0.3-0.2l-0.4-0.4c-0.1-0.1-0.2-0.1-0.3-0.1H48l-0.5,0.1h-0.1c-0.2,0-0.4-0.2-0.4-0.4c0,0,0,0,0,0
	c0-0.2-0.1-0.4-0.1-0.6c0-0.2-0.1-0.3-0.3-0.4l-0.5-0.2c-0.2-0.1-0.4-0.3-0.3-0.6c0,0,0-0.1,0.1-0.1l0.2-0.4c0.1-0.2,0.1-0.3,0-0.5
	c-0.1-0.2-0.2-0.3-0.3-0.5c-0.1-0.2-0.1-0.5,0.1-0.6c0,0,0,0,0.1,0l0.5-0.3c0.1-0.1,0.2-0.2,0.3-0.4c0-0.2,0-0.4,0.1-0.6
	c0-0.2,0.2-0.4,0.4-0.4c0,0,0,0,0,0h0.1l0.5,0.1h0.1c0.2,0,0.3-0.1,0.4-0.2c0.1-0.1,0.3-0.3,0.4-0.4c0.1-0.1,0.2-0.1,0.3-0.1
	c0.1,0,0.2,0.1,0.3,0.1l0.4,0.4c0.1,0.1,0.2,0.2,0.3,0.2h0.1l0.6-0.1H51c0.2,0,0.4,0.2,0.4,0.4c0,0.2,0.1,0.4,0.1,0.6
	c0,0.2,0.1,0.3,0.3,0.4l0.5,0.3c0.2,0.1,0.3,0.3,0.3,0.5c0,0,0,0.1,0,0.1l-0.3,0.5c-0.1,0.1-0.1,0.3,0,0.4l0.3,0.5
	c0.2,0.2,0.2,0.4,0,0.6C52.4,101.6,52.4,101.6,52.3,101.5L52.3,101.5z M49.2,97.8c-1.3,0-2.4,1.1-2.4,2.4c0,0.6,0.2,1.3,0.7,1.7
	c0.5,0.5,1.1,0.7,1.7,0.7l0,0c1.3,0,2.4-1.1,2.4-2.4C51.6,98.9,50.5,97.8,49.2,97.8L49.2,97.8z M49.2,102.1L49.2,102.1
	c-0.5,0-1-0.2-1.4-0.6c-0.4-0.4-0.6-0.9-0.6-1.4c0-1.1,0.9-1.9,1.9-1.9s1.9,0.9,1.9,1.9C51.1,101.3,50.2,102.1,49.2,102.1z"/>
<path class="st1" d="M213.3,13.7h-13.3c-1,0-1.9,0.8-1.9,1.9V29c0,1,0.8,1.9,1.9,1.9h13.3c1,0,1.9-0.8,1.9-1.9v0V15.6
	C215.2,14.6,214.3,13.8,213.3,13.7z M206.6,30.2c-4.4,0-7.9-3.5-7.9-7.9s3.5-7.9,7.9-7.9c4.4,0,7.9,3.5,7.9,7.9S211,30.2,206.6,30.2
	L206.6,30.2z"/>
<g class="st2">
	<path class="st3" d="M41.9,335.2H31.6v-3.7h25v3.7H46.3v30h-4.4V335.2z"/>
</g>
<g class="st2">
	<path class="st3" d="M76.4,354.6l-3.5,10.6h-4.5l11.5-33.7h5.2l11.5,33.7h-4.6l-3.6-10.6H76.4z M87.5,351.2l-3.4-9.7
		c-0.8-2.2-1.3-4.2-1.8-6.2h-0.1c-0.5,2-1,4-1.7,6.1l-3.3,9.8H87.5z"/>
</g>
<g class="st2">
	<path class="st3" d="M101.2,348.9c0-3.1-0.1-5.6-0.2-7.9h3.9l0.3,4.2h0.1c1.8-3,4.6-4.7,8.6-4.7c5.9,0,10.3,5,10.3,12.3
		c0,8.7-5.4,13-11.1,13c-3.2,0-6-1.4-7.5-3.8h-0.1v13.2h-4.4V348.9z M105.6,355.3c0,0.7,0,1.3,0.2,1.8c0.8,3.1,3.5,5.2,6.6,5.2
		c4.7,0,7.4-3.8,7.4-9.4c0-4.8-2.6-9-7.2-9c-3,0-5.9,2.1-6.7,5.4c-0.1,0.5-0.3,1.2-0.3,1.8V355.3z"/>
	<path class="st3" d="M129.6,348.9c0-3.1-0.1-5.6-0.2-7.9h3.9l0.3,4.2h0.1c1.8-3,4.6-4.7,8.6-4.7c5.9,0,10.3,5,10.3,12.3
		c0,8.7-5.4,13-11.1,13c-3.2,0-6-1.4-7.5-3.8H134v13.2h-4.4V348.9z M134,355.3c0,0.7,0,1.3,0.2,1.8c0.8,3.1,3.5,5.2,6.6,5.2
		c4.7,0,7.4-3.8,7.4-9.4c0-4.8-2.6-9-7.2-9c-3,0-5.9,2.1-6.7,5.4c-0.1,0.5-0.3,1.2-0.3,1.8V355.3z"/>
</g>
<g class="st2">
	<path class="st3" d="M168.8,331.5H187v3.7h-13.8v11.2h12.7v3.6h-12.7v15.3h-4.4V331.5z"/>
</g>
<g class="st2">
	<path class="st3" d="M213.4,352.9c0,9-6.3,12.9-12.1,12.9c-6.5,0-11.6-4.8-11.6-12.5c0-8.1,5.4-12.8,12-12.8
		C208.7,340.5,213.4,345.5,213.4,352.9z M194.3,353.1c0,5.3,3,9.3,7.3,9.3c4.2,0,7.4-4,7.4-9.4c0-4.1-2.1-9.3-7.3-9.3
		C196.5,343.8,194.3,348.6,194.3,353.1z"/>
	<path class="st3" d="M219,329.7h4.4v35.5H219V329.7z"/>
	<path class="st3" d="M235.6,334.2c0,1.5-1,2.7-2.8,2.7c-1.6,0-2.7-1.2-2.7-2.7s1.1-2.8,2.8-2.8
		C234.5,331.4,235.6,332.6,235.6,334.2z M230.8,365.2V341h4.4v24.2H230.8z"/>
	<path class="st3" d="M264.4,352.9c0,9-6.3,12.9-12.1,12.9c-6.5,0-11.6-4.8-11.6-12.5c0-8.1,5.4-12.8,12-12.8
		C259.7,340.5,264.4,345.5,264.4,352.9z M245.2,353.1c0,5.3,3,9.3,7.3,9.3c4.2,0,7.4-4,7.4-9.4c0-4.1-2.1-9.3-7.3-9.3
		C247.4,343.8,245.2,348.6,245.2,353.1z"/>
</g>
</svg>
