<svg id="All_Services" data-name="All Services" xmlns="http://www.w3.org/2000/svg" viewBox="0 0 18 18"><defs><style>.cls-1{fill:#ffce04;}</style></defs><title>allservices</title><g id="Group_564" data-name="Group 564"><path id="Path_5006" data-name="Path 5006" class="cls-1" d="M16.68,5a1.36,1.36,0,0,0-1-.8,1.64,1.64,0,0,0-1.19.1,1.37,1.37,0,0,0-.79,1,1.1,1.1,0,0,0,0,.8l-1.78,1A3.49,3.49,0,0,0,9.64,5.66V4.17A1.59,1.59,0,0,0,9.2,1,1.58,1.58,0,0,0,7.65,2.59,1.61,1.61,0,0,0,8.84,4.17V5.66A3.62,3.62,0,0,0,6.16,7.74L4.28,7.15a1.66,1.66,0,0,0-.3-.8,1.53,1.53,0,0,0-1-.69,1.49,1.49,0,0,0-1.86,1,.19.19,0,0,0,0,.07A1.47,1.47,0,0,0,1.21,8a1.93,1.93,0,0,0,1,.79c.1,0,.3.1.4.1a1.66,1.66,0,0,0,.79-.2A3,3,0,0,0,4,8l2,.5V9a3.71,3.71,0,0,0,.7,2.08L5.27,12.5a1.55,1.55,0,0,0-2,.3,1.67,1.67,0,0,0,0,2.28,1.61,1.61,0,0,0,1.09.5,1.59,1.59,0,0,0,1.09-.5,1.79,1.79,0,0,0,.3-2l1.39-1.39a3.78,3.78,0,0,0,2.08.69,3.78,3.78,0,0,0,2.08-.69l1.39,1.39a1.55,1.55,0,0,0,.3,2,1.43,1.43,0,0,0,2,.14.93.93,0,0,0,.14-.14,1.67,1.67,0,0,0,0-2.28,1.8,1.8,0,0,0-2-.3L11.92,11a3.75,3.75,0,0,0,.69-2.08,5.39,5.39,0,0,0-.2-1.19l1.78-.89a1,1,0,0,0,.7.4c.2,0,.3.1.5.1a2.42,2.42,0,0,0,.79-.2,1.35,1.35,0,0,0,.79-1A1.63,1.63,0,0,0,16.67,5Zm-1.1,1.48a1.09,1.09,0,0,1-.59.1.94.94,0,0,1-.5-.4,1.19,1.19,0,0,1-.1-.59.94.94,0,0,1,.4-.5.87.87,0,0,1,.5-.1h.2a.94.94,0,0,1,.5.4,1.21,1.21,0,0,1,.1.59A1.12,1.12,0,0,1,15.58,6.45ZM11.72,8.93A2.48,2.48,0,1,1,9.24,6.45h0a2.47,2.47,0,0,1,2.48,2.43ZM8.45,2.59a.78.78,0,0,1,.77-.8h0a.73.73,0,0,1,.79.66.33.33,0,0,1,0,.14.79.79,0,0,1-.79.79.8.8,0,0,1-.8-.79Zm-6,5.35a.78.78,0,0,1-.4-.4A.45.45,0,0,1,1.9,7a.82.82,0,0,1,1-.6,2.38,2.38,0,0,1,.4.5.74.74,0,0,1,.1.5.8.8,0,0,1-1,.6ZM5,14.39a.76.76,0,0,1-1.08-.07.78.78,0,0,1,0-1,.74.74,0,0,1,.6-.2,1.38,1.38,0,0,1,.59.2A.89.89,0,0,1,5,14.39Zm9.62-1.09a.77.77,0,1,1-1.09,0,.74.74,0,0,1,.6-.2.36.36,0,0,1,.48.17Z"/></g></svg>