<svg id="App_settings" data-name="App settings" xmlns="http://www.w3.org/2000/svg" viewBox="0 0 18 18"><defs><style>.cls-1{fill:#ffce04;}</style></defs><title>appsetting</title><g id="Group_407" data-name="Group 407"><path id="Path_4968" data-name="Path 4968" class="cls-1" d="M16.2,7.2H14.7a.51.51,0,0,1-.5-.4.62.62,0,0,1,.1-.6l1.1-1.1a.74.74,0,0,0,.2-.6,1.42,1.42,0,0,0-.2-.6L14,2.7a.91.91,0,0,0-1.2,0L11.7,3.8a.46.46,0,0,1-.6.1.61.61,0,0,1-.3-.6V1.8A.86.86,0,0,0,10,1H8a.86.86,0,0,0-.8.8V3.3a.51.51,0,0,1-.4.5.62.62,0,0,1-.6-.1l-1-1A.91.91,0,0,0,4,2.7L2.7,4a.87.87,0,0,0-.3.6,1.42,1.42,0,0,0,.2.6L3.7,6.3a.46.46,0,0,1,.1.6c0,.2-.2.3-.5.3H1.8A.86.86,0,0,0,1,8v2a.79.79,0,0,0,.78.8H3.3a.51.51,0,0,1,.5.4.6.6,0,0,1-.1.6L2.6,12.9a.74.74,0,0,0-.2.6,1.42,1.42,0,0,0,.2.6L4,15.3a.91.91,0,0,0,1.2,0l1.1-1.1a.46.46,0,0,1,.6-.1.68.68,0,0,1,.4.5v1.5a.75.75,0,0,0,.58.88L8,17h2a.79.79,0,0,0,.8-.78V14.7a.51.51,0,0,1,.4-.5.6.6,0,0,1,.6.1l1.1,1.1a.91.91,0,0,0,1.2,0l1.3-1.3a.74.74,0,0,0,.2-.6,1.42,1.42,0,0,0-.2-.6l-1.1-1.1a.46.46,0,0,1-.1-.6.68.68,0,0,1,.5-.4h1.5A.86.86,0,0,0,17,10V8A.86.86,0,0,0,16.2,7.2Zm.2,2.8a.22.22,0,0,1-.2.2H14.7a1.23,1.23,0,0,0-1.1.7,1.11,1.11,0,0,0,.3,1.3L15,13.3a.19.19,0,0,1,0,.26l0,0-1.3,1.3a.19.19,0,0,1-.26,0l0,0-1.1-1.1a1.43,1.43,0,0,0-1.3-.3,1.23,1.23,0,0,0-.7,1.1v1.5a.22.22,0,0,1-.2.2H8a.22.22,0,0,1-.2-.2V14.6a1.23,1.23,0,0,0-.7-1.1.74.74,0,0,0-.5-.1,1.12,1.12,0,0,0-.8.3L4.7,14.8a.19.19,0,0,1-.26,0l0,0L3.1,13.5a.19.19,0,0,1,0-.26l0,0,1.1-1.1a1.43,1.43,0,0,0,.3-1.3,1.74,1.74,0,0,0-1.2-.6H1.8a.22.22,0,0,1-.2-.2V8a.22.22,0,0,1,.2-.2H3.3a1.23,1.23,0,0,0,1.1-.7,1.11,1.11,0,0,0-.3-1.3l-1-1a.3.3,0,0,1,0-.4L4.4,3.1a.3.3,0,0,1,.4,0L5.9,4.2a1.43,1.43,0,0,0,1.3.3,1.23,1.23,0,0,0,.7-1.1V1.8a.22.22,0,0,1,.2-.2H10a.22.22,0,0,1,.2.2V3.3a1.23,1.23,0,0,0,.7,1.1,1.11,1.11,0,0,0,1.3-.3L13.3,3a.19.19,0,0,1,.26,0l0,0,1.3,1.3a.19.19,0,0,1,0,.26s0,0,0,0L13.8,5.7A1.43,1.43,0,0,0,13.5,7a1.23,1.23,0,0,0,1.1.7h1.5a.22.22,0,0,1,.2.2V10Z"/><path id="Path_4969" data-name="Path 4969" class="cls-1" d="M9,6.3A2.7,2.7,0,1,0,11.7,9h0A2.68,2.68,0,0,0,9,6.3Zm0,4.8A2.1,2.1,0,1,1,11.1,9,2.1,2.1,0,0,1,9,11.1Z"/></g></svg>