<?xml version="1.0" encoding="utf-8"?>
<!-- Generator: Adobe Illustrator 21.1.0, SVG Export Plug-In . SVG Version: 6.00 Build 0)  -->
<svg version="1.1" id="Layer_1" xmlns="http://www.w3.org/2000/svg" xmlns:xlink="http://www.w3.org/1999/xlink" x="0px" y="0px"
	 viewBox="0 0 35 35" style="enable-background:new 0 0 35 35;" xml:space="preserve">
<style type="text/css">
	.st0{fill:#ED1C24;}
	.st1{fill:#D8D8D8;}
</style>
<rect x="8.2" y="7.8" class="st0" width="19" height="17"/>
<g>
	<path class="st1" d="M17.5,1C8.4,1,1,8.4,1,17.5S8.4,34,17.5,34S34,26.6,34,17.5S26.6,1,17.5,1z M25.4,21c-0.4,0.4-1.1,0.4-1.6,0
		l-6.4-6.4L11.1,21c-0.4,0.4-1.1,0.4-1.6,0c-0.4-0.4-0.4-1.1,0-1.6l7.1-7.1c0.2-0.2,0.5-0.3,0.8-0.3s0.6,0.1,0.8,0.3l7.1,7.1
		C25.8,19.9,25.8,20.6,25.4,21z"/>
</g>
</svg>
