<svg xmlns="http://www.w3.org/2000/svg" xmlns:xlink="http://www.w3.org/1999/xlink" viewBox="0 0 100 100"><defs><style>.cls-1{fill:url(#linear-gradient);}.cls-2{fill:none;}</style><linearGradient id="linear-gradient" x1="-396.9" y1="353.36" x2="-396.9" y2="352.36" gradientTransform="matrix(99.99, 0, 0, -100.01, 39737.14, 35337.74)" gradientUnits="userSpaceOnUse"><stop offset="0" stop-color="#ed1c24"/><stop offset="1" stop-color="#ffcd00"/></linearGradient></defs><title>b2c</title><g id="b2c"><g id="Group_557" data-name="Group 557"><g id="Group_105" data-name="Group 105"><path id="Path_1687" data-name="Path 1687" class="cls-1" d="M88.81,84.05l-1.67-.72A49.54,49.54,0,0,0,100,50a50.23,50.23,0,0,0-8.57-28.1c0-.24-.24-.24-.24-.48a48,48,0,0,0-8.81-9.52,1.52,1.52,0,0,0-1.9,2.38,53.66,53.66,0,0,1,7.14,7.62,93,93,0,0,1-11.9,3.33A67.15,67.15,0,0,0,71.19,15,35.57,35.57,0,0,0,63.1,5a45.12,45.12,0,0,1,13.33,6.19A1.55,1.55,0,0,0,78.1,8.57a49.81,49.81,0,0,0-63.34,6.19,49.55,49.55,0,0,0-1.9,68.57L11.2,84c-.72.24-5.72,2.15-5.72,8.81v5.72A1.59,1.59,0,0,0,7.14,100H37.38a1.67,1.67,0,0,0,0-3.33H32.62V91.19a8.2,8.2,0,0,1,4.76-7.62h0L45,80.47h0l4,4a1.83,1.83,0,0,0,1.19.48h0c.48,0,.72-.24,1.19-.48l3.81-4,7.62,3.1h0c.24,0,4.77,1.67,4.77,7.62v5.48H42.14a1.67,1.67,0,0,0,0,3.33H92.85a1.63,1.63,0,0,0,1.67-1.58V92.86A9.11,9.11,0,0,0,88.81,84.05ZM84,82.15l-1.66-.72v-1A7.58,7.58,0,0,0,86,76a4.45,4.45,0,0,0,4-4.53,5.06,5.06,0,0,0-1.67-3.57V65A10.39,10.39,0,0,0,79,54.52a16.92,16.92,0,0,1,.24-3.33H96.66A45.84,45.84,0,0,1,84,82.14Zm-5.71-3.57H76.9a5,5,0,0,1-5-5v-4.3h0A16.29,16.29,0,0,0,80.47,66a7.14,7.14,0,0,0,3.1,2.86v4.52c-.24,3.1-2.38,5.24-5.24,5.24Zm1,3.1v.95l-1.66,1.9L76,82.86V81.67h3.33Zm-9-15.49H70v-1a7.41,7.41,0,0,1,7.38-7.38h.72a7.42,7.42,0,0,1,7.38,7.38v1h0c-2.15-.48-2.86-3.33-2.86-3.57-.24-.72-.71-1.19-1.19-1.19-.71-.24-1.19,0-1.67.71C76.66,66.19,70.47,66.19,70.23,66.19Zm16.43,6.43V70.47a1.87,1.87,0,0,1,.48,1A2.48,2.48,0,0,1,86.66,72.62Zm2.62-48.1a46.64,46.64,0,0,1,7.38,23.81H79.28A90.3,90.3,0,0,0,76.43,28.1a70,70,0,0,0,12.85-3.58ZM76.43,48.33H60.23a12.94,12.94,0,0,0-8.57-4.28V30.47a123.71,123.71,0,0,0,21.9-1.9A88.6,88.6,0,0,1,76.43,48.33ZM62.38,65A2.07,2.07,0,0,1,61,66.9V63.1C61.66,63.1,62.38,64.05,62.38,65ZM51.66,3.33c6.19.72,12.15,5.24,16.9,13.33a41,41,0,0,1,4,9.29,144.09,144.09,0,0,1-21,1.67V3.33ZM50.47,47.38a9.65,9.65,0,0,1,9.77,9.55V59h0c-3.1-.71-4.05-4.52-4.05-4.52-.24-.72-.72-1.19-1.19-1.19-.72-.24-1.19,0-1.67.71-3.81,5-11.9,5.24-11.9,5.24h-.24V57.14a9.65,9.65,0,0,1,9.54-9.76h-.26Zm-26.9.95a83.61,83.61,0,0,1,2.86-19.52,152.92,152.92,0,0,0,21.9,1.9V44.28A12.44,12.44,0,0,0,40,48.57h-.24l-16.19-.24ZM39.28,62.86v4A1.82,1.82,0,0,1,37.85,65,2.41,2.41,0,0,1,39.28,62.86Zm9-59.53V27.62A144,144,0,0,1,27.38,26a41.84,41.84,0,0,1,4.28-9.29C36.19,8.57,42.14,3.81,48.33,3.33ZM37.14,5A31.64,31.64,0,0,0,29,15a44.59,44.59,0,0,0-4.52,10.24,65.3,65.3,0,0,1-11.9-3.34A46,46,0,0,1,37.14,5ZM10.71,24.52A72.65,72.65,0,0,0,23.33,28.1a78.62,78.62,0,0,0-2.86,20.24H3.1A48.54,48.54,0,0,1,10.71,24.52ZM21,81.67h3.33v1l-1.67,1.9L21,82.85Zm2.38-3.1H21.9a5.09,5.09,0,0,1-5.24-4.93V69.28A16.25,16.25,0,0,0,25.23,66a7.25,7.25,0,0,0,3.1,2.86v4.52a5,5,0,0,1-4.64,5.23Zm4.05-15.72c-.24-.71-.72-1.19-1.19-1.19-.72-.24-1.19,0-1.67.72-2.86,4-9.29,4-9.29,4H15v-1a7.41,7.41,0,0,1,7.38-7.37h.72a7.42,7.42,0,0,1,7.38,7.38v1h0c-2.38-.48-3.1-3.57-3.1-3.57ZM3.1,51.67H20.47A15.52,15.52,0,0,0,20.71,55a10.52,10.52,0,0,0-9,10.47v2.86A4.59,4.59,0,0,0,14,76.43,8.54,8.54,0,0,0,17.61,81v.94L16,82.61A49.29,49.29,0,0,1,3.1,51.67ZM13.57,70.48v2.14a1.32,1.32,0,0,1-.71-1.19c.24-.24.47-.72.71-1Zm15.71,21V96.9H8.57v-4a5.8,5.8,0,0,1,3.57-5.72h0l6-2.38,3.33,3.1a1.78,1.78,0,0,0,1.19.24h0c.48,0,.71-.24,1.19-.48l3.1-3.1L30.72,86A10.43,10.43,0,0,0,29.28,91.43ZM44.52,77.62,36.19,81a10.7,10.7,0,0,0-3.81,2.62l-4.77-1.9v-1a7.58,7.58,0,0,0,3.58-4.53,4.44,4.44,0,0,0,4-4.53,5,5,0,0,0-1.66-3.56V65.24a10.84,10.84,0,0,0-9.76-10.72,13.43,13.43,0,0,0-.24-3.1H37.85a14.17,14.17,0,0,0-1.19,5.48v3.57a5.12,5.12,0,0,0,2.86,9.29,9.86,9.86,0,0,0,4.76,5.95l.24,1.9Zm-13.1-5V70.47a1.87,1.87,0,0,1,.48,1c.24.71,0,.95-.47,1.19Zm21.19,5.95h0L50,81.43l-2.38-2.38v-1.9c.47,0,1.19.23,1.66.23h1.9a4.1,4.1,0,0,0,1.67-.23v1.43Zm-1.67-4.52H49a6.66,6.66,0,0,1-6.66-6.65V61.9C45,61.67,50,60.71,53.57,57.62a9.48,9.48,0,0,0,4,4.05v6c.23,3.33-2.86,6.43-6.67,6.43Zm16.9,9.28A13.69,13.69,0,0,0,64,80.71l-8.1-3.33V75.71a10.07,10.07,0,0,0,4.77-5.95,5.09,5.09,0,0,0,5-5.16v-.08a4.7,4.7,0,0,0-2.15-4V57.14a13.94,13.94,0,0,0-1.19-5.47H76.43a14.73,14.73,0,0,1-.24,3.1,10.39,10.39,0,0,0-9.53,10.47V68.1A4.59,4.59,0,0,0,69,76.2a8.53,8.53,0,0,0,3.58,4.52v1Zm1-12.86v2.15a1.31,1.31,0,0,1-.72-1.19,1.29,1.29,0,0,1,.73-1ZM91.43,96.9H71V91.43a11.34,11.34,0,0,0-1.19-5.24l3.57-1.43,3.1,3.1a1.81,1.81,0,0,0,1.19.48h0c.48,0,.71-.24,1.19-.48l3.1-3.1,6,2.38h0a5.8,5.8,0,0,1,3.57,5.72v4Z"/></g></g></g><g id="Layer_7" data-name="Layer 7"><rect class="cls-2" width="100" height="100"/></g></svg>