<svg id="Layer_1" data-name="Layer 1" xmlns="http://www.w3.org/2000/svg" viewBox="0 0 60 60"><defs><style>.cls-1{fill:#181818;}</style></defs><title>b2c</title><g id="Group_425" data-name="Group 425"><g id="Group_105" data-name="Group 105"><path id="Path_1687" data-name="Path 1687" class="cls-1" d="M52.51,49.74l-1-.41A28.71,28.71,0,0,0,59,30,29.1,29.1,0,0,0,54,13.7c0-.14-.14-.14-.14-.28A27.59,27.59,0,0,0,48.78,7.9a.89.89,0,0,0-1.11,1.38,32.14,32.14,0,0,1,4.15,4.42,53.66,53.66,0,0,1-6.91,1.93,38.29,38.29,0,0,0-2.62-5.94,20.57,20.57,0,0,0-4.7-5.8,26.63,26.63,0,0,1,7.74,3.59.9.9,0,0,0,1-1.51A28.89,28.89,0,0,0,9.56,9.56a28.73,28.73,0,0,0-1.1,39.77l-1,.41a5.1,5.1,0,0,0-3.31,5.11v3.32a.92.92,0,0,0,1,.83H22.68a1,1,0,1,0,0-1.93H19.92V53.88a4.75,4.75,0,0,1,2.76-4.42h0l4.42-1.79h0L29.44,50a1,1,0,0,0,.69.27h0a1.46,1.46,0,0,0,.7-.27L33,47.67l4.42,1.8h0a4.37,4.37,0,0,1,2.77,4.42v3.17H25.44a1,1,0,0,0,0,1.94H54.85a1,1,0,0,0,1-.93V54.85A5.28,5.28,0,0,0,52.51,49.74Zm-2.77-1.11-1-.41v-.55a4.37,4.37,0,0,0,2.07-2.62,2.58,2.58,0,0,0,2.35-2.62,3,3,0,0,0-1-2.08V38.69a6,6,0,0,0-5.38-6.07A9.7,9.7,0,0,1,47,30.68H57.07A26.62,26.62,0,0,1,49.74,48.63Zm-3.31-2.07H45.6a2.92,2.92,0,0,1-2.9-2.9V41.18h0a9.4,9.4,0,0,0,5-1.93,4.16,4.16,0,0,0,1.8,1.65v2.63a3.08,3.08,0,0,1-3,3Zm.55,1.8v.55L46,50l-1-1v-.69Zm-5.25-9h-.14v-.55a4.31,4.31,0,0,1,4.29-4.28h.41a4.3,4.3,0,0,1,4.28,4.28v.55h0c-1.24-.27-1.65-1.93-1.65-2.07-.14-.41-.42-.69-.7-.69s-.69,0-1,.42c-1.8,2.35-5.39,2.35-5.52,2.35Zm9.53,3.73V41.87a1,1,0,0,1,.28.55,1.45,1.45,0,0,1-.28.69Zm1.52-27.89A27.1,27.1,0,0,1,57.06,29H47a51.7,51.7,0,0,0-1.66-11.74,40.84,40.84,0,0,0,7.46-2.07ZM45.32,29H35.94a7.49,7.49,0,0,0-5-2.49V18.67a72.25,72.25,0,0,0,12.71-1.1A51,51,0,0,1,45.32,29Zm-8.14,9.66a1.2,1.2,0,0,1-.83,1.11V37.59C36.76,37.59,37.18,38.14,37.18,38.69ZM31,2.93c3.59.41,7.05,3,9.81,7.73a23.46,23.46,0,0,1,2.34,5.39A82.35,82.35,0,0,1,31,17Zm-.69,25.55A5.58,5.58,0,0,1,35.94,34a.29.29,0,0,1,0,.13v1.1h0c-1.79-.41-2.34-2.62-2.34-2.62-.14-.42-.42-.69-.69-.69s-.69,0-1,.41c-2.21,2.9-6.9,3-6.9,3H24.9V34.14a5.59,5.59,0,0,1,5.54-5.66.17.17,0,0,1,.1,0ZM14.68,29A48.24,48.24,0,0,1,16.34,17.7,87.08,87.08,0,0,0,29,18.81v7.87a7.21,7.21,0,0,0-4.83,2.49h-.14L14.67,29Zm9.11,8.42V39.8A1.06,1.06,0,0,1,23,38.69a1.41,1.41,0,0,1,.82-1.24ZM29,2.93V17a82.35,82.35,0,0,1-12.15-1,24.37,24.37,0,0,1,2.48-5.39C22,6,25.44,3.2,29,2.93Zm-6.49,1a18.32,18.32,0,0,0-4.7,5.8,25.82,25.82,0,0,0-2.62,5.94A37.71,37.71,0,0,1,8.32,13.7,26.6,26.6,0,0,1,22.54,3.9ZM7.21,15.22a42.13,42.13,0,0,0,7.32,2.07A45.22,45.22,0,0,0,12.87,29H2.79A28.18,28.18,0,0,1,7.21,15.22Zm5.94,33.14h1.93v.55l-1,1.11-1-1Zm1.38-1.79H13.7a3,3,0,0,1-3-2.86V41.18a9.49,9.49,0,0,0,5-1.93,4.16,4.16,0,0,0,1.8,1.65v2.63a2.87,2.87,0,0,1-2.7,3Zm2.34-9.12c-.13-.41-.41-.69-.69-.69s-.69,0-1,.42c-1.66,2.34-5.39,2.34-5.39,2.34H9.7V39A4.3,4.3,0,0,1,14,34.69h.41A4.31,4.31,0,0,1,18.68,39v.55h0c-1.39-.27-1.8-2.07-1.8-2.07ZM2.79,31H12.87A9.54,9.54,0,0,0,13,32.89,6.1,6.1,0,0,0,7.77,39v1.66a2.66,2.66,0,0,0,1.38,4.69A4.91,4.91,0,0,0,11.22,48v.55l-1,.41A28.67,28.67,0,0,1,2.79,31ZM8.87,41.87v1.24a.74.74,0,0,1-.41-.69C8.59,42.28,8.73,42,8.87,41.87ZM18,54V57.2H6V54.85A3.37,3.37,0,0,1,8,51.53H8l3.45-1.37L13.43,52a1,1,0,0,0,.69.14h0c.27,0,.41-.14.69-.27L16.6,50l2.21.83A6.09,6.09,0,0,0,18,54Zm8.84-8L22,48a6.35,6.35,0,0,0-2.21,1.51L17,48.36v-.55a4.4,4.4,0,0,0,2.07-2.63,2.57,2.57,0,0,0,2.35-2.62,2.94,2.94,0,0,0-1-2.07V38.83a6.28,6.28,0,0,0-5.66-6.21,7.68,7.68,0,0,0-.14-1.79H23A8.25,8.25,0,0,0,22.26,34v2.08A3.08,3.08,0,0,0,21,38.42a3,3,0,0,0,2.9,3,5.7,5.7,0,0,0,2.76,3.45l.14,1.1Zm-7.6-2.9V41.87a1,1,0,0,1,.28.55c.14.42,0,.55-.27.69Zm12.29,3.45h0L30,48.22l-1.39-1.38v-1.1c.28,0,.7.13,1,.13h1.1a2.28,2.28,0,0,0,1-.13v.83Zm-1-2.62H29.44a3.85,3.85,0,0,1-3.86-3.85V36.9a12,12,0,0,0,6.49-2.49,5.44,5.44,0,0,0,2.35,2.35v3.45a3.75,3.75,0,0,1-3.77,3.73h-.1Zm9.81,5.39a7.92,7.92,0,0,0-2.21-1.52l-4.7-1.94v-1a5.8,5.8,0,0,0,2.76-3.45,3,3,0,0,0,2.9-3v0a2.73,2.73,0,0,0-1.24-2.35V34.14A8.26,8.26,0,0,0,37.18,31h8.14a7.8,7.8,0,0,1-.13,1.8,6,6,0,0,0-5.53,6.07v1.66a2.67,2.67,0,0,0-.36,3.75,2.75,2.75,0,0,0,1.74.95,5,5,0,0,0,2.07,2.62v.55Zm.55-7.46v1.24a.77.77,0,0,1-.42-.69.74.74,0,0,1,.42-.55ZM54,57.2H42.15V54a6.7,6.7,0,0,0-.69-3l2.07-.82L45.32,52a1.07,1.07,0,0,0,.7.28h0c.27,0,.41-.14.69-.28l1.79-1.79L52,51.54h0A3.38,3.38,0,0,1,54,54.86Z"/></g></g></svg>