<?xml version="1.0" encoding="utf-8"?>
<!-- Generator: Adobe Illustrator 22.1.0, SVG Export Plug-In . SVG Version: 6.00 Build 0)  -->
<svg version="1.1" id="Layer_1" xmlns="http://www.w3.org/2000/svg" xmlns:xlink="http://www.w3.org/1999/xlink" x="0px" y="0px"
	 viewBox="0 0 512 512" style="enable-background:new 0 0 512 512;" xml:space="preserve">
<style type="text/css">
	.st0{fill:#838383;}
</style>
<g>
	<g>
		<path class="st0" d="M416.3,411.9h-5.9V263.7c0-85.1-69.3-154.4-154.4-154.4s-154.4,69.3-154.4,154.4v148.2h-5.9
			c-29.2,0-52.9,23.7-52.9,52.9V512h426.4v-47.2C469.2,435.6,445.5,411.9,416.3,411.9z M132,263.7c0-68.4,55.6-124,124-124
			s124,55.6,124,124v148.2H132V263.7z M438.8,481.6L438.8,481.6H73.2v-16.8c0-12.4,10.1-22.5,22.5-22.5h5.9h308.8h5.9
			c12.4,0,22.5,10.1,22.5,22.5V481.6z"/>
	</g>
</g>
<g>
	<g>
		<path class="st0" d="M256,155v30.4c43.2,0,78.3,35.1,78.3,78.3h30.4C364.8,203.7,316,155,256,155z"/>
	</g>
</g>
<g>
	<g>
		<rect x="240.8" class="st0" width="30.4" height="85.7"/>
	</g>
</g>
<g>
	<g>
		
			<rect x="363.9" y="90.1" transform="matrix(0.7071 -0.7071 0.7071 0.7071 44.6911 318.4598)" class="st0" width="85.7" height="30.4"/>
	</g>
</g>
<g>
	<g>
		
			<rect x="90.1" y="62.4" transform="matrix(0.7071 -0.7071 0.7071 0.7071 -43.5824 105.2618)" class="st0" width="30.4" height="85.7"/>
	</g>
</g>
<g>
	<g>
		
			<rect x="159.2" y="16.2" transform="matrix(0.9239 -0.3827 0.3827 0.9239 -9.328 71.2377)" class="st0" width="30.4" height="85.7"/>
	</g>
</g>
<g>
	<g>
		
			<rect x="294.7" y="43.9" transform="matrix(0.3827 -0.9239 0.9239 0.3827 153.7897 348.2897)" class="st0" width="85.7" height="30.4"/>
	</g>
</g>
<g>
	<g>
		
			<rect x="410.1" y="159.2" transform="matrix(0.9239 -0.3827 0.3827 0.9239 -32.2625 186.6164)" class="st0" width="85.7" height="30.4"/>
	</g>
</g>
<g>
	<g>
		
			<rect x="43.9" y="131.6" transform="matrix(0.3827 -0.9239 0.9239 0.3827 -124.6491 162.2594)" class="st0" width="30.4" height="85.7"/>
	</g>
</g>
</svg>
