<svg id="Layer_1" data-name="Layer 1" xmlns="http://www.w3.org/2000/svg" viewBox="0 0 57.31 58"><defs><style>.cls-1{fill:#181818;}</style></defs><title>g2bmenu</title><g id="Group_426" data-name="Group 426"><g id="Group_275" data-name="Group 275"><path id="Path_4960" data-name="Path 4960" class="cls-1" d="M57.38,29.9H54.57V25.07A1.28,1.28,0,0,0,53.3,23.8H45.77A16.06,16.06,0,0,0,31.24,11.13V9.64H39a1.28,1.28,0,0,0,1.27-1.27V2.27A1.28,1.28,0,0,0,39,1H30A1.28,1.28,0,0,0,28.7,2.27v8.8a16.58,16.58,0,0,0-9.33,4,15.59,15.59,0,0,0-5.14,8.75H6.7a1.28,1.28,0,0,0-1.27,1.27V29.9H2.62a1.29,1.29,0,0,0-1.28,1.27V57.73A1.29,1.29,0,0,0,2.62,59H57.38a1.29,1.29,0,0,0,1.28-1.27V31.17A1.29,1.29,0,0,0,57.38,29.9ZM31.24,5.4V3.54h6.47V7H31.24ZM30,13.62A13.67,13.67,0,0,1,43.17,23.8H16.88A13.59,13.59,0,0,1,30,13.62ZM8,26.34H52.08V29.9H8ZM32.89,56.46H27.11V46.92h5.78Zm23.22,0H40.84V40.23a1.27,1.27,0,0,0-2.54,0V56.51H35.43V45.64a1.28,1.28,0,0,0-1.27-1.27H25.84a1.28,1.28,0,0,0-1.27,1.27V56.46H21.7V40.23a1.27,1.27,0,0,0-2.54,0V56.51H3.89V32.44H56.11v24ZM40.79,35.78c0-.11,0-.16,0-.22s-.06-.16-.11-.21-.1-.16-.16-.21a.65.65,0,0,0-.21-.16.43.43,0,0,0-.21-.11.34.34,0,0,0-.22,0,.76.76,0,0,0-.47,0c-.11,0-.16,0-.22,0s-.21.06-.31.06-.16.1-.22.16a.83.83,0,0,0-.16.21.41.41,0,0,0-.1.21.31.31,0,0,0-.05.21v.53c0,.11.05.16.05.22s0,.16.1.21.11.16.16.21a.69.69,0,0,0,.22.16.39.39,0,0,0,.21.11.31.31,0,0,0,.21.05h.53c.11,0,.16-.05.22-.05s.16-.06.21-.11.16-.1.21-.16a.65.65,0,0,0,.16-.21.35.35,0,0,0,.1-.21.32.32,0,0,0,.06-.21V36a.14.14,0,0,0,.08-.17l0,0Zm-19.09,0c0-.11-.05-.16-.05-.22s0-.16-.11-.21-.1-.16-.16-.21a.65.65,0,0,0-.21-.16.43.43,0,0,0-.21-.11.49.49,0,0,0-.27,0,.76.76,0,0,0-.47,0c-.11,0-.16,0-.22,0l-.26.06s-.16.1-.21.16a.65.65,0,0,0-.16.21.36.36,0,0,0-.11.21.31.31,0,0,0-.05.21V36a1.39,1.39,0,0,0,.37.9.83.83,0,0,0,.21.16.41.41,0,0,0,.21.1.35.35,0,0,0,.22.06h.53c.1,0,.16-.06.26-.06s.16,0,.21-.1.16-.11.22-.16a1.39,1.39,0,0,0,.37-.9.2.2,0,0,1-.11-.21ZM15.61,34.4H8.39a1.29,1.29,0,0,0-1.27,1.27v5.46A1.29,1.29,0,0,0,8.39,42.4H15.6a1.29,1.29,0,0,0,1.28-1.27V35.67A1.3,1.3,0,0,0,15.6,34.4Zm-1.28,5.51H9.67V37h4.66Zm1.28,5.89H8.39a1.28,1.28,0,0,0-1.27,1.27v5.46a1.3,1.3,0,0,0,1.27,1.28H15.6a1.3,1.3,0,0,0,1.28-1.28V47.07A1.3,1.3,0,0,0,15.6,45.8Zm-1.28,5.46H9.67V48.35h4.66ZM33.58,34.4H26.42a1.28,1.28,0,0,0-1.27,1.27v5.46a1.28,1.28,0,0,0,1.27,1.27h7.21a1.28,1.28,0,0,0,1.27-1.27V35.67a1.34,1.34,0,0,0-1.32-1.27Zm-1.27,5.51H27.65V37h4.66ZM51.6,34.4H44.39a1.28,1.28,0,0,0-1.27,1.27v5.46a1.29,1.29,0,0,0,1.27,1.28H51.6a1.3,1.3,0,0,0,1.28-1.27V35.67A1.3,1.3,0,0,0,51.6,34.4Zm-1.27,5.51H45.67V37h4.66ZM51.6,45.8H44.39a1.28,1.28,0,0,0-1.27,1.27v5.46a1.29,1.29,0,0,0,1.27,1.28H51.6a1.3,1.3,0,0,0,1.28-1.28V47.07A1.3,1.3,0,0,0,51.6,45.8Zm-1.27,5.46H45.67V48.35h4.66Z" transform="translate(-1.34 -1)"/></g></g></svg>