<svg xmlns="http://www.w3.org/2000/svg" xmlns:xlink="http://www.w3.org/1999/xlink" viewBox="0 0 100 100"><defs><style>.cls-1{fill:url(#linear-gradient);}.cls-2{fill:none;}</style><linearGradient id="linear-gradient" x1="-3483.53" y1="752.39" x2="-3483.53" y2="753.39" gradientTransform="translate(344264.75 -75239) scale(98.81 100)" gradientUnits="userSpaceOnUse"><stop offset="0" stop-color="#ed1c24"/><stop offset="1" stop-color="#ffcd00"/></linearGradient></defs><title>government</title><g id="government"><g id="Group_556" data-name="Group 556"><g id="Group_275" data-name="Group 275"><path id="Path_4960" data-name="Path 4960" class="cls-1" d="M97.15,49.75H92.36V41.46a2.22,2.22,0,0,0-2.2-2.2h-13a27.7,27.7,0,0,0-25-21.78V14.89H65.48a2.22,2.22,0,0,0,2.2-2.2V2.2A2.22,2.22,0,0,0,65.48,0H50a2.22,2.22,0,0,0-2.2,2.2V17.38a28.45,28.45,0,0,0-16.08,6.9,27.2,27.2,0,0,0-8.89,15.08h-13a2.22,2.22,0,0,0-2.2,2.2v8.29H2.85a2.22,2.22,0,0,0-2.2,2.2V97.8a2.22,2.22,0,0,0,2.2,2.2h94.3a2.22,2.22,0,0,0,2.2-2.2V52A2.22,2.22,0,0,0,97.15,49.75ZM52.2,7.59V4.4H63.39v6H52.2ZM50.1,21.78A23.74,23.74,0,0,1,72.78,39.26H27.52A23.22,23.22,0,0,1,50.1,21.78ZM12,43.66h76v6.09H12ZM55,95.5H45V79H55Zm40,0H68.68v-28a2.2,2.2,0,1,0-4.39,0V95.6h-4.9V76.92a2.21,2.21,0,0,0-2.2-2.19H42.81a2.21,2.21,0,0,0-2.2,2.19V95.5h-4.9v-28a2.2,2.2,0,1,0-4.39,0V95.6H5.05V54.15H95V95.5ZM68.58,59.94c0-.2-.1-.3-.1-.4s-.1-.3-.2-.4-.2-.3-.3-.4a1.38,1.38,0,0,0-.4-.3.52.52,0,0,0-.4-.2c-.1-.1-.2-.1-.4-.1a1.1,1.1,0,0,0-.8,0c-.2,0-.3.1-.4.1a1.91,1.91,0,0,0-.49.1c-.1.1-.3.2-.4.3a1.38,1.38,0,0,0-.3.4.52.52,0,0,0-.2.4c-.1.1-.1.2-.1.4v.9c0,.2.1.3.1.4s.1.3.2.4.2.3.3.4a1.38,1.38,0,0,0,.4.3.5.5,0,0,0,.39.2c.1.1.2.1.4.1h.9c.2,0,.3-.1.4-.1s.3-.1.4-.2.3-.2.4-.3a1.38,1.38,0,0,0,.3-.4.52.52,0,0,0,.2-.4c.1-.1.1-.2.1-.4v-.5s.1-.1,0-.3Zm-32.87,0c0-.2-.1-.3-.1-.4s-.1-.3-.2-.4-.2-.3-.3-.4a1.46,1.46,0,0,0-.39-.3.52.52,0,0,0-.4-.2.75.75,0,0,0-.5-.1,1.1,1.1,0,0,0-.8,0c-.2,0-.3.1-.4.1s-.3.1-.5.1-.3.2-.4.3a1.38,1.38,0,0,0-.3.4.52.52,0,0,0-.2.4c-.1.1-.1.2-.1.4v.5a2.45,2.45,0,0,0,.6,1.6,1.38,1.38,0,0,0,.4.3.52.52,0,0,0,.4.2c.1.1.2.1.4.1h.9c.2,0,.3-.1.5-.1s.3-.1.39-.2.3-.2.4-.3a2.27,2.27,0,0,0,.6-1.6C35.81,60.24,35.71,60,35.71,59.94Zm-10.49-2.4H12.84a2.22,2.22,0,0,0-2.2,2.2v9.39a2.22,2.22,0,0,0,2.2,2.2H25.22a2.22,2.22,0,0,0,2.2-2.2V59.74A2.22,2.22,0,0,0,25.22,57.54ZM23,67H15V62h8Zm2.19,10.09H12.84a2.22,2.22,0,0,0-2.2,2.2v9.39a2.22,2.22,0,0,0,2.2,2.2H25.22a2.22,2.22,0,0,0,2.2-2.2V79.32A2.29,2.29,0,0,0,25.22,77.12ZM23,86.61H15v-5h8ZM56.19,57.54H43.91a2.22,2.22,0,0,0-2.2,2.2v9.39a2.22,2.22,0,0,0,2.2,2.2H56.29a2.22,2.22,0,0,0,2.2-2.2V59.74A2.38,2.38,0,0,0,56.19,57.54ZM54,67H46V62h8Zm33.26-9.49H74.88a2.22,2.22,0,0,0-2.2,2.2v9.39a2.22,2.22,0,0,0,2.2,2.2H87.26a2.22,2.22,0,0,0,2.2-2.2V59.74A2.29,2.29,0,0,0,87.26,57.54ZM85.06,67h-8V62h8Zm2.2,10.09H74.88a2.22,2.22,0,0,0-2.2,2.2v9.39a2.22,2.22,0,0,0,2.2,2.2H87.26a2.22,2.22,0,0,0,2.2-2.2V79.32A2.37,2.37,0,0,0,87.26,77.12Zm-2.2,9.49h-8v-5h8Z"/></g></g></g><g id="Layer_7" data-name="Layer 7"><rect class="cls-2" width="100" height="100"/></g></svg>