<?xml version="1.0" encoding="utf-8"?>
<!-- Generator: Adobe Illustrator 22.1.0, SVG Export Plug-In . SVG Version: 6.00 Build 0)  -->
<svg version="1.1" id="Layer_1" xmlns="http://www.w3.org/2000/svg" xmlns:xlink="http://www.w3.org/1999/xlink" x="0px" y="0px"
	 viewBox="0 0 98.8 100" style="enable-background:new 0 0 98.8 100;" xml:space="preserve">
<style type="text/css">
	.st0{fill:url(#Path_4960_1_);}
</style>
<g id="Group_556" transform="translate(2722 755)">
	<g id="Group_275">
		
			<linearGradient id="Path_4960_1_" gradientUnits="userSpaceOnUse" x1="-3116.2927" y1="-401.644" x2="-3116.2927" y2="-402.644" gradientTransform="matrix(98.812 0 0 -100 305254.5 -40919.3984)">
			<stop  offset="0" style="stop-color:#ED1C24"/>
			<stop  offset="1" style="stop-color:#FFCD00"/>
		</linearGradient>
		<path id="Path_4960" class="st0" d="M-2625.4-705.2h-4.8v-8.3c0-1.2-1-2.2-2.2-2.2h-13c-2.6-12-12.8-20.9-25-21.8v-2.6h13.3
			c1.2,0,2.2-1,2.2-2.2v-10.5c0-1.2-1-2.2-2.2-2.2h-15.5c-1.2,0-2.2,1-2.2,2.2v15.2c-5.9,0.6-11.6,2.9-16.1,6.9
			c-4.5,3.9-7.7,9.2-8.9,15.1h-13c-1.2,0-2.2,1-2.2,2.2v8.3h-4.8c-1.2,0-2.2,1-2.2,2.2v45.8c0,1.2,1,2.2,2.2,2.2h94.4
			c1.2,0,2.2-1,2.2-2.2V-703C-2623.2-704.2-2624.2-705.2-2625.4-705.2z M-2670.4-747.4v-3.2h11.2v6h-11.2V-747.4z M-2672.5-733.2
			c10.7,0.1,19.9,7.3,22.7,17.5h-45.3C-2692.5-726-2683.2-733.2-2672.5-733.2L-2672.5-733.2z M-2710.6-711.3h76.1v6.1h-76.1V-711.3z
			 M-2667.6-659.4h-10v-16.5h10L-2667.6-659.4z M-2627.6-659.4h-26.3v-28c0-1.2-1-2.2-2.2-2.2s-2.2,1-2.2,2.2v28.1h-4.9V-678
			c0-1.2-1-2.2-2.2-2.2h-14.4c-1.2,0-2.2,1-2.2,2.2v18.6h-4.9v-28c0-1.2-1-2.2-2.2-2.2s-2.2,1-2.2,2.2v28.1h-26.3v-41.5h90
			L-2627.6-659.4L-2627.6-659.4z M-2654-695c0-0.2-0.1-0.3-0.1-0.4c-0.1-0.1-0.1-0.3-0.2-0.4c-0.1-0.1-0.2-0.3-0.3-0.4
			c-0.1-0.1-0.2-0.2-0.4-0.3c-0.1-0.1-0.2-0.2-0.4-0.2c-0.1-0.1-0.2-0.1-0.4-0.1c-0.3-0.1-0.6-0.1-0.8,0c-0.2,0-0.3,0.1-0.4,0.1
			c-0.3,0-0.4,0.1-0.5,0.1c-0.1,0.1-0.3,0.2-0.4,0.3c-0.1,0.1-0.2,0.2-0.3,0.4c-0.1,0.1-0.2,0.2-0.2,0.4c-0.1,0.1-0.1,0.2-0.1,0.4
			v0.9c0,0.2,0.1,0.3,0.1,0.4c0.1,0.1,0.1,0.3,0.2,0.4c0.1,0.1,0.2,0.3,0.3,0.4c0.1,0.1,0.2,0.2,0.4,0.3c0.1,0.1,0.2,0.2,0.4,0.2
			c0.1,0.1,0.2,0.1,0.4,0.1h0.9c0.2,0,0.3-0.1,0.4-0.1c0.1-0.1,0.3-0.1,0.4-0.2c0.1-0.1,0.3-0.2,0.4-0.3c0.1-0.1,0.2-0.2,0.3-0.4
			c0.1-0.1,0.2-0.2,0.2-0.4c0.1-0.1,0.1-0.2,0.1-0.4v-0.5C-2654-694.7-2653.9-694.8-2654-695C-2654-695-2654-695-2654-695z
			 M-2686.9-695c0-0.2-0.1-0.3-0.1-0.4c-0.1-0.1-0.1-0.3-0.2-0.4c-0.1-0.1-0.2-0.3-0.3-0.4c-0.1-0.1-0.2-0.2-0.4-0.3
			c-0.1-0.1-0.2-0.2-0.4-0.2c-0.1-0.1-0.3-0.1-0.5-0.1c-0.3-0.1-0.6-0.1-0.8,0c-0.2,0-0.3,0.1-0.4,0.1c-0.2,0-0.3,0.1-0.5,0.1
			c-0.1,0.1-0.3,0.2-0.4,0.3c-0.1,0.1-0.2,0.2-0.3,0.4c-0.1,0.1-0.2,0.2-0.2,0.4c-0.1,0.1-0.1,0.2-0.1,0.4v0.5
			c0,0.6,0.2,1.1,0.6,1.6c0.1,0.1,0.2,0.2,0.4,0.3c0.1,0.1,0.2,0.2,0.4,0.2c0.1,0.1,0.2,0.1,0.4,0.1h0.9c0.2,0,0.3-0.1,0.5-0.1
			c0.1-0.1,0.3-0.1,0.4-0.2s0.3-0.2,0.4-0.3c0.4-0.4,0.6-1,0.6-1.6C-2686.8-694.7-2686.9-694.9-2686.9-695z M-2697.4-697.4h-12.4
			c-1.2,0-2.2,1-2.2,2.2v9.4c0,1.2,1,2.2,2.2,2.2h12.4c1.2,0,2.2-1,2.2-2.2v-9.4C-2695.2-696.4-2696.2-697.4-2697.4-697.4z
			 M-2699.6-687.9h-8v-5h8V-687.9z M-2697.4-677.8h-12.4c-1.2,0-2.2,1-2.2,2.2v9.4c0,1.2,1,2.2,2.2,2.2h12.4c1.2,0,2.2-1,2.2-2.2
			v-9.4C-2695.2-676.8-2696.2-677.7-2697.4-677.8z M-2699.6-668.3h-8v-5h8V-668.3z M-2666.4-697.4h-12.3c-1.2,0-2.2,1-2.2,2.2v9.4
			c0,1.2,1,2.2,2.2,2.2h12.4c1.2,0,2.2-1,2.2-2.2v-9.4C-2664.2-696.4-2665.2-697.4-2666.4-697.4z M-2668.6-687.9h-8v-5h8V-687.9z
			 M-2635.3-697.4h-12.4c-1.2,0-2.2,1-2.2,2.2v9.4c0,1.2,1,2.2,2.2,2.2h12.4c1.2,0,2.2-1,2.2-2.2v-9.4
			C-2633.2-696.4-2634.1-697.4-2635.3-697.4z M-2637.5-687.9h-8v-5h8L-2637.5-687.9z M-2635.3-677.8h-12.4c-1.2,0-2.2,1-2.2,2.2v9.4
			c0,1.2,1,2.2,2.2,2.2h12.4c1.2,0,2.2-1,2.2-2.2v-9.4C-2633.2-676.8-2634.1-677.7-2635.3-677.8z M-2637.5-668.3h-8v-5h8
			L-2637.5-668.3z"/>
	</g>
</g>
</svg>
