<svg xmlns="http://www.w3.org/2000/svg" viewBox="0 0 22 20.537">
  <defs>
    <style>
      .cls-1 {
        fill: #fff;
      }

      .cls-2 {
        fill: #ffce04;
      }
    </style>
  </defs>
  <g id="Group_469" data-name="Group 469" transform="translate(-253 -20)">
    <g id="Group_11" data-name="Group 11" transform="translate(247.016 20)">
      <path id="Path_48" data-name="Path 48" class="cls-1" d="M21.968,6.13C21.661,2.554,19.107,0,16.042,0a6.049,6.049,0,0,0-5.109,2.963A5.6,5.6,0,0,0,6.029,0C2.861,0,.307,2.554,0,6.13A7.783,7.783,0,0,0,.2,8.48,9.873,9.873,0,0,0,3.27,13.589l7.663,6.948L18.7,13.589A10.6,10.6,0,0,0,21.763,8.48,8,8,0,0,0,21.968,6.13ZM20.946,8.174a9.312,9.312,0,0,1-2.759,4.6l-7.254,6.437-7.05-6.437a8.428,8.428,0,0,1-2.861-4.6,4.091,4.091,0,0,1-.1-1.941h0C1.226,3.167,3.372.92,6.029.92a5.174,5.174,0,0,1,4.6,3.167l.409.92.409-.92A5.1,5.1,0,0,1,16.144.92c2.657,0,4.8,2.248,5.109,5.415C21.15,6.233,21.252,6.948,20.946,8.174Z" transform="translate(6)"/>
    </g>
    <path id="Path_48_1_" class="cls-2" d="M22,6.1C21.7,2.6,19.1,0,16.1,0A5.928,5.928,0,0,0,11,3,5.768,5.768,0,0,0,6,0C2.9,0,.3,2.6,0,6.1A9.737,9.737,0,0,0,.2,8.5a9.353,9.353,0,0,0,3.1,5.1L11,20.5l7.8-6.9a10.4,10.4,0,0,0,3.1-5.1A19.269,19.269,0,0,0,22,6.1Z" transform="translate(253 20)"/>
  </g>
</svg>
