<?xml version="1.0" encoding="utf-8"?>
<!-- Generator: Adobe Illustrator 22.1.0, SVG Export Plug-In . SVG Version: 6.00 Build 0)  -->
<svg version="1.1" id="Capa_1" xmlns="http://www.w3.org/2000/svg" xmlns:xlink="http://www.w3.org/1999/xlink" x="0px" y="0px"
	 viewBox="0 0 512 512" style="enable-background:new 0 0 512 512;" xml:space="preserve">
<style type="text/css">
	.st0{fill:#999999;}
</style>
<g>
	<g>
		<path class="st0" d="M256,0C121.8,0,13,108.8,13,243v95.5c0,4.8,3.9,8.7,8.7,8.7h26.5c2.1,14.9,14.9,26,29.9,26h5.2
			c4.8,23.5,27.7,38.7,51.2,33.9c20.2-4.1,34.8-21.9,34.8-42.6V243c0-24-19.4-43.4-43.3-43.4c-20.7,0-38.5,14.5-42.6,34.8h-5.2
			c-15.1,0-27.8,11.1-29.9,26H30.4V243c0-61.3,25-120,69.3-162.5c16.5,12.1,38.9,12.5,55.8,1c29.8-19.7,64.8-30,100.5-29.5
			c35.7-0.5,70.7,9.8,100.5,29.5c17,11.4,39.3,11,55.9-1c44.2,42.4,69.3,101.1,69.3,162.4v17.4h-17.8c-2.1-14.9-14.9-26-29.9-26
			h-5.2c-4.8-23.5-27.7-38.7-51.2-33.9c-20.2,4.1-34.8,21.9-34.8,42.6v121.5c0,24,19.4,43.4,43.3,43.4c20.7,0,38.5-14.5,42.6-34.8
			h5.2c15.1,0,27.8-11.1,29.9-26h17.4c-4.6,73.1-65.2,130-138.4,130.2h-45c-3.7-10.4-13.4-17.3-24.4-17.4h-34.7
			c-14.4,0-26,11.7-26,26c0,14.4,11.7,26,26,26h34.7c11,0,20.8-7,24.4-17.4h45c86.2-0.1,156.1-70,156.2-156.2V243
			C499,108.8,390.2,0,256,0z M99.8,243c0-14.4,11.7-26,26-26c14.4,0,26,11.7,26,26v121.5c0,14.4-11.7,26-26,26s-26-11.7-26-26V243z
			 M65.1,264.7c0-7.2,5.8-13,13-13h4.3v104.1h-4.3c-7.2,0-13-5.8-13-13V264.7z M47.7,277.7v52.1H30.4v-52.1H47.7z M366.2,67.2
			c-32.6-21.6-71-33-110.2-32.5c-39.2-0.5-77.6,10.8-110.2,32.4c-9.8,6.6-22.4,7.1-32.7,1.4c83.1-68.2,202.8-68.2,285.8,0l0,0
			C388.6,74.3,376,73.7,366.2,67.2z M412.2,364.5c0,14.4-11.7,26-26,26c-14.4,0-26-11.7-26-26V243c0-14.4,11.7-26,26-26
			c14.4,0,26,11.7,26,26V364.5z M446.9,342.8c0,7.2-5.8,13-13,13h-4.3V251.7h4.3c7.2,0,13,5.8,13,13V342.8z M273.4,494.6h-34.7
			c-4.8,0-8.7-3.9-8.7-8.7c0-4.8,3.9-8.7,8.7-8.7h34.7c4.8,0,8.7,3.9,8.7,8.7C282,490.8,278.1,494.6,273.4,494.6z M481.6,329.8
			h-17.4v-52.1h17.4V329.8z"/>
	</g>
</g>
</svg>
