<?xml version="1.0" encoding="utf-8"?>
<!-- Generator: Adobe Illustrator 22.1.0, SVG Export Plug-In . SVG Version: 6.00 Build 0)  -->
<svg version="1.1" id="Layer_1" xmlns="http://www.w3.org/2000/svg" xmlns:xlink="http://www.w3.org/1999/xlink" x="0px" y="0px"
	 viewBox="0 0 28.7 28.3" style="enable-background:new 0 0 28.7 28.3;" xml:space="preserve">
<style type="text/css">
	.st0{fill:#999999;}
</style>
<g id="Group_334" transform="translate(958 2551)">
	<path id="Path_612" class="st0" d="M-944.3-2538.5h-3.6c-0.3,0-0.6,0.3-0.5,0.6c0,0.3,0.2,0.5,0.5,0.5h3c-0.3,1.7-1.9,2.8-3.6,2.4
		s-2.8-1.9-2.4-3.6c0.3-1.7,1.9-2.8,3.6-2.4c0.6,0.1,1.2,0.4,1.6,0.8c0.2,0.2,0.6,0.2,0.8,0s0.2-0.6,0-0.8c-1.6-1.6-4.3-1.6-5.9,0
		c-1.6,1.6-1.6,4.3,0,5.9c1.6,1.6,4.3,1.6,5.9,0c0.8-0.8,1.2-1.8,1.2-3C-943.8-2538.2-944-2538.5-944.3-2538.5z"/>
	<path id="Path_614" class="st0" d="M-931.6-2546h-11.3l-1.5-4.6c-0.1-0.2-0.3-0.4-0.5-0.4h-10.8c-1.3,0-2.3,1-2.3,2.3v18.7
		c0,1.3,1,2.3,2.3,2.3h11.4l1.5,4.6c0.1,0.2,0.3,0.4,0.5,0.4h10.6c1.3,0,2.3-1,2.3-2.3v-18.7C-929.3-2545-930.3-2546-931.6-2546z
		 M-956.9-2530v-18.7c0-0.7,0.5-1.2,1.2-1.2h10.3l4,12l0,0l3,9.1h-17.3C-956.3-2528.8-956.9-2529.3-956.9-2530z M-935.1-2537.5
		c-0.5,1.1-1.1,2.1-1.8,3.1c-0.8-0.9-1.2-1.6-1.2-1.6c-0.2-0.2-0.5-0.3-0.8-0.1c-0.2,0.2-0.3,0.5-0.1,0.8c0,0.1,0.6,0.8,1.5,1.9
		c-0.2,0.3-0.5,0.6-0.8,1l-1.7-5L-935.1-2537.5L-935.1-2537.5z M-943.1-2527.7h4.2l-3.1,3.3L-943.1-2527.7z M-930.4-2525
		c0,0.7-0.5,1.2-1.2,1.2h-9.3l3.8-4l0,0c0,0,0,0,0-0.1c0.1-0.1,0.1-0.3,0.1-0.5l-0.9-2.8c0.4-0.4,0.8-0.8,1.1-1.3
		c0.7,0.9,1.6,1.9,2.6,2.8c0.2,0.2,0.6,0.2,0.8,0s0.2-0.6,0-0.8c-1-1-1.9-2-2.7-3c0.9-1.3,1.6-2.6,2.3-4h1.2c0.3,0,0.6-0.3,0.5-0.6
		c0-0.3-0.2-0.5-0.5-0.5h-3.7v-1c0-0.3-0.2-0.6-0.5-0.6s-0.6,0.2-0.6,0.5l0,0v1h-2.9l-2.1-6.3h10.9c0.7,0,1.2,0.5,1.2,1.2
		L-930.4-2525L-930.4-2525z"/>
</g>
</svg>
