<svg xmlns="http://www.w3.org/2000/svg" xmlns:xlink="http://www.w3.org/1999/xlink" viewBox="0 0 100 100"><defs><style>.cls-1{fill:url(#linear-gradient);}.cls-2{fill:none;}</style><linearGradient id="linear-gradient" x1="-400.1" y1="350.66" x2="-400.1" y2="349.66" gradientTransform="matrix(89.18, 0, 0, -100, 35732.26, 35067.2)" gradientUnits="userSpaceOnUse"><stop offset="0" stop-color="#ed1c24"/><stop offset="1" stop-color="#ffcd00"/></linearGradient></defs><title>location</title><g id="Location"><path id="Path_1676" data-name="Path 1676" class="cls-1" d="M61.8,74.64C70.22,60.66,80.88,41,80.88,30.9a30.9,30.9,0,0,0-61.8,0h0c0,10.1,10.65,29.76,19.08,43.74-10,.75-32.75,3.46-32.75,12.46S28.51,100,50,100s44.59-4,44.59-12.9-22.8-11.71-32.8-12.47ZM23.35,30.9a26.64,26.64,0,1,1,53.28,0c0,12.84-20.45,45-26.65,54.51C43.78,75.94,23.35,43.74,23.35,30.9ZM50,95.74c-26.1,0-40.33-5.72-40.33-8.66,0-2.26,9.39-7.14,31-8.38,4.06,6.55,7.15,11.18,7.55,11.73a2.18,2.18,0,0,0,3.05.49,2.23,2.23,0,0,0,.48-.49c.43-.51,3.49-5.18,7.55-11.73,21.64,1.24,31,6.1,31,8.38,0,3-14.24,8.66-40.34,8.66ZM63.43,30.9A13.45,13.45,0,1,0,50,44.35,13.45,13.45,0,0,0,63.43,30.9Zm-22.65,0A9.2,9.2,0,1,1,50,40.1h0a9.22,9.22,0,0,1-9.21-9.2Z"/></g><g id="Layer_7" data-name="Layer 7"><rect class="cls-2" width="100" height="100"/></g></svg>