<?xml version="1.0" encoding="utf-8"?>
<!-- Generator: Adobe Illustrator 22.1.0, SVG Export Plug-In . SVG Version: 6.00 Build 0)  -->
<svg version="1.1" id="Layer_1" xmlns="http://www.w3.org/2000/svg" xmlns:xlink="http://www.w3.org/1999/xlink" x="0px" y="0px"
	 viewBox="0 0 300 300" style="enable-background:new 0 0 300 300;" xml:space="preserve">
<style type="text/css">
	.st0{fill:#FFCD00;}
</style>
<g>
	<path class="st0" d="M91.5,237.1c2.8-4.1,1.7-9.8-2.5-12.6c-32.7-22-53.2-58.6-54.7-97.9c-0.2-5-4.4-8.9-9.4-8.7
		c-5,0.2-8.9,4.4-8.7,9.4c0.9,22.7,7.3,45,18.5,64.6c10.8,18.9,26.1,35.4,44.3,47.6c1.7,1.1,3.5,1.6,5.4,1.5
		C87.1,241,89.8,239.6,91.5,237.1L91.5,237.1z M222.4,239.8c18-12.4,33.1-29,43.7-48.1c11-19.7,17.1-42.1,17.8-64.8
		c0.1-5-3.8-9.2-8.8-9.3c-5-0.1-9.2,3.8-9.3,8.8c-1.1,39.3-21.2,76.2-53.7,98.5c-4.1,2.8-5.1,8.5-2.3,12.6c1.7,2.5,4.4,3.8,7.2,3.9
		C218.9,241.5,220.8,241,222.4,239.8L222.4,239.8z M170.4,105.9c0,11.9-8.4,21.5-18.9,21.5c-10.4,0-18.9-9.6-18.9-21.5
		s8.4-21.5,18.9-21.5C161.9,84.4,170.4,94,170.4,105.9L170.4,105.9z M176.7,199.4c0,5.4-4.4,9.8-9.8,9.8H136c-5.4,0-9.8-4.4-9.8-9.8
		l-2.4-37.7c0-5.4,4.4-9.8,9.8-9.8h35.8c5.4,0,9.8,4.4,9.8,9.8L176.7,199.4L176.7,199.4z M179.9,137.5h-56.8
		c-7.5,0-13.6,6.1-13.6,13.6l7.2,119.2c0,7.5,6.1,13.6,13.6,13.6h42.4c7.5,0,13.6-6.1,13.6-13.6l7.2-119.2
		C193.5,143.7,187.4,137.5,179.9,137.5L179.9,137.5z M211.2,198.9c26-19,41.5-49.5,41.5-81.7c0-55.8-45.4-101.2-101.2-101.2
		S50.3,61.5,50.3,117.3c0,32.1,15.5,62.7,41.5,81.7c3.6,2.6,8.6,1.8,11.2-1.7c2.6-3.6,1.8-8.6-1.7-11.2
		c-21.8-16-34.9-41.7-34.9-68.7c0-46.9,38.2-85.1,85.1-85.1s85.1,38.2,85.1,85.1c0,27-13,52.7-34.9,68.7c-3.6,2.6-4.4,7.7-1.7,11.2
		c1.6,2.1,4,3.3,6.5,3.3C208.1,200.5,209.8,200,211.2,198.9L211.2,198.9z"/>
</g>
</svg>
