<svg id="my_profile" data-name="my profile" xmlns="http://www.w3.org/2000/svg" viewBox="0 0 18 18"><defs><style>.cls-1{fill:#ffce04;}</style></defs><title>myprofile</title><path id="Path_4977" data-name="Path 4977" class="cls-1" d="M17,9A8,8,0,1,0,3.6,14.9h0l.3.2H4c.1.1.3.2.4.3l.1.1c.2.1.3.2.5.3a.09.09,0,0,1,.1.1h0a2.29,2.29,0,0,1,.5.3h0a7,7,0,0,0,1.9.6h.1c.2,0,.4.1.6.1H9.7a1.23,1.23,0,0,0,.6-.1h.1a6.1,6.1,0,0,0,1.9-.6h.1a2.29,2.29,0,0,0,.5-.3.09.09,0,0,0,.1-.1h0c.2-.1.3-.2.5-.3s.1-.1.2-.1.3-.2.4-.3a.09.09,0,0,0,.1-.1h0l.3-.2h0A7.83,7.83,0,0,0,17,9ZM1.6,9A7.4,7.4,0,0,1,16.4,9h0a7.3,7.3,0,0,1-2.5,5.5c-.1-.1-.2-.1-.3-.2l-2.5-1.2a.84.84,0,0,1-.3-.5v-.9c.1-.1.1-.2.2-.2a10.79,10.79,0,0,0,.8-1.5,1,1,0,0,0,.6-1V8a.89.89,0,0,0-.3-.7V6a2.37,2.37,0,0,0-.5-1.7A3.13,3.13,0,0,0,9,3.3a3.41,3.41,0,0,0-2.6.9A2.64,2.64,0,0,0,5.9,6V7.4a.61.61,0,0,0-.3.6V9a.91.91,0,0,0,.4.8,5.63,5.63,0,0,0,.9,1.9v.8a.71.71,0,0,1-.3.6L4.3,14.4c-.1,0-.1.1-.2.1A7,7,0,0,1,1.6,9Zm11.8,6c-.1.1-.2.1-.3.2l-.1.1a.7.7,0,0,1-.4.2h-.1a4,4,0,0,1-1,.4h0c-.2.1-.4.1-.6.2h0c-.2,0-.4.1-.6.1h0a4,4,0,0,0-.5.1H8.5a.74.74,0,0,1-.5-.1H8A2.06,2.06,0,0,1,6.6,16h0c-.2-.1-.4-.1-.5-.2h0c-.2-.1-.3-.2-.5-.2H5.5c-.1-.1-.3-.2-.4-.3L5,15.2c-.1-.1-.3-.2-.4-.3h0l2.3-1.3a1.15,1.15,0,0,0,.6-1.1v-1l-.1-.1a6.46,6.46,0,0,1-.9-1.8V9.5l-.1-.1A.52.52,0,0,1,6.2,9V8a.7.7,0,0,1,.2-.4l.1-.1V5.9h0a1.79,1.79,0,0,1,.4-1.3A2.93,2.93,0,0,1,9,3.9a2.55,2.55,0,0,1,2.1.7,1.79,1.79,0,0,1,.4,1.3V7.6l.1.1a.52.52,0,0,1,.2.4v1a.56.56,0,0,1-.3.5h-.1v.1a10.23,10.23,0,0,1-.7,1.5c-.1.1-.2.2-.2.3l-.1.1v1.1a1.23,1.23,0,0,0,.7,1.1Z"/></svg>