<svg xmlns="http://www.w3.org/2000/svg" xmlns:xlink="http://www.w3.org/1999/xlink" viewBox="0 0 100 100"><defs><style>.cls-1{fill:url(#linear-gradient);}.cls-2{fill:none;}</style><linearGradient id="linear-gradient" x1="-391.1" y1="350.66" x2="-391.1" y2="349.66" gradientTransform="matrix(99.98, 0, 0, -100, 39153.24, 35065.73)" gradientUnits="userSpaceOnUse"><stop offset="0" stop-color="#ed1c24"/><stop offset="1" stop-color="#f2c300"/></linearGradient></defs><title>paybill</title><g id="paybills"><path id="Path_122" data-name="Path 122" class="cls-1" d="M90,0H25a8.26,8.26,0,0,0-8.34,8.18v68.5H5a4.89,4.89,0,0,0-5,4.77V90a10,10,0,0,0,10,10H73.33A9.82,9.82,0,0,0,80,97.32,9.48,9.48,0,0,0,83.33,90V23.34H95a4.91,4.91,0,0,0,5-4.82V10A10,10,0,0,0,90,0ZM10,96.66A6.68,6.68,0,0,1,3.35,90V81.66A1.66,1.66,0,0,1,5,80H63.35V90a9.79,9.79,0,0,0,2.5,6.66ZM80,10V90a7,7,0,0,1-2.17,5,7.63,7.63,0,0,1-4.26,1.68l-.23,0a6.65,6.65,0,0,1-3.12-.78,7.08,7.08,0,0,1-3.54-6.21V78.34a1.57,1.57,0,0,0-1.47-1.66H20V8.34a4.91,4.91,0,0,1,4.82-5H82.51a9.07,9.07,0,0,0-.88,1.25A9.78,9.78,0,0,0,80,9.53,3.7,3.7,0,0,0,80,10Zm16.66,8.34A1.66,1.66,0,0,1,95,20H83.35V10a6.66,6.66,0,1,1,13.32,0ZM58.35,36.66A18.33,18.33,0,0,0,47.76,40H28.35a1.66,1.66,0,1,0,0,3.32H44.17A18.1,18.1,0,0,0,40.69,50H28.35a1.66,1.66,0,0,0,0,3.32H40.09A15.37,15.37,0,0,0,40,55a18.39,18.39,0,0,0,.69,5H28.35a1.66,1.66,0,0,0,0,3.32H42A18.33,18.33,0,1,0,58.35,36.66Zm0,33.34a14.93,14.93,0,0,1-15-14.86V55a16.26,16.26,0,0,1,.25-2.79,1,1,0,0,0,.06-.33,15,15,0,0,1,5.49-8.77,1.72,1.72,0,0,0,.37-.28A15,15,0,1,1,58.35,70Zm9.16-23.16a1.61,1.61,0,0,0-2.25.39l-.07.11L56.36,60.68l-5.18-5.17a1.64,1.64,0,0,0-2.32,2.32l6.66,6.66a1.5,1.5,0,0,0,1.17.51A1.3,1.3,0,0,0,58,64.16l10-15a1.63,1.63,0,0,0-.43-2.27ZM40,13.34H60A1.66,1.66,0,1,0,60,10H40a1.66,1.66,0,1,0,0,3.32Zm-11.66,10H71.69a1.66,1.66,0,0,0,0-3.32H28.35a1.66,1.66,0,0,0,0,3.32Zm0,10H71.69a1.66,1.66,0,1,0,0-3.32H28.35a1.66,1.66,0,1,0,0,3.32Z"/></g><g id="Layer_7" data-name="Layer 7"><rect class="cls-2" width="100" height="100"/></g></svg>