<?xml version="1.0" encoding="utf-8"?>
<!-- Generator: Adobe Illustrator 22.1.0, SVG Export Plug-In . SVG Version: 6.00 Build 0)  -->
<svg version="1.1" id="Layer_1" xmlns="http://www.w3.org/2000/svg" xmlns:xlink="http://www.w3.org/1999/xlink" x="0px" y="0px"
	 viewBox="0 0 100 100" style="enable-background:new 0 0 100 100;" xml:space="preserve">
<style type="text/css">
	.st0{fill:url(#Path_122_1_);}
</style>
<linearGradient id="Path_122_1_" gradientUnits="userSpaceOnUse" x1="-390.1138" y1="350.656" x2="-390.1138" y2="349.656" gradientTransform="matrix(99.9818 0 0 -100.0004 39054.2539 35065.7344)">
	<stop  offset="0" style="stop-color:#ED1C24"/>
	<stop  offset="1" style="stop-color:#F2C300"/>
</linearGradient>
<path id="Path_122" class="st0" d="M90,0H25c-4.6,0-8.3,3.6-8.3,8.2c0,0.1,0,0.1,0,0.2v68.3H5c-2.7-0.1-4.9,2.1-5,4.8
	c0,0.1,0,0.1,0,0.2V90c0,5.5,4.5,10,10,10h63.3c2.5,0,4.9-1,6.7-2.7c2.1-1.8,3.4-4.5,3.3-7.3V23.3H95c2.7,0,5-2.1,5-4.8
	c0-0.1,0-0.1,0-0.2V10C100,4.5,95.5,0,90,0C90,0,90,0,90,0z M10,96.7c-3.7,0-6.6-3-6.7-6.7v-8.3C3.3,80.7,4.1,80,5,80c0,0,0,0,0,0
	h58.3v10c0,2.5,0.9,4.8,2.5,6.7H10z M80,10v80c0,1.9-0.8,3.7-2.2,5c-1.2,1-2.7,1.6-4.3,1.7c-0.1,0-0.2,0-0.2,0
	c-1.1,0-2.2-0.3-3.1-0.8c-2.2-1.3-3.6-3.7-3.5-6.2V78.3c0.1-0.9-0.6-1.6-1.5-1.7c-0.1,0-0.1,0-0.2,0H20V8.3c0-2.7,2.1-5,4.8-5
	c0.1,0,0.1,0,0.2,0h57.5c-0.3,0.4-0.6,0.8-0.9,1.3c-1,1.5-1.5,3.2-1.6,4.9C80,9.7,80,9.8,80,10z M96.7,18.3c0,0.9-0.7,1.7-1.7,1.7
	c0,0,0,0,0,0H83.3V10c0-3.7,3-6.7,6.7-6.7s6.7,3,6.7,6.7V18.3z M40,13.3h20c0.9,0,1.7-0.7,1.7-1.7S60.9,10,60,10c0,0,0,0,0,0H40
	c-0.9,0-1.7,0.7-1.7,1.7S39.1,13.3,40,13.3C40,13.3,40,13.3,40,13.3z M28.3,23.3h43.3c0.9,0,1.7-0.7,1.7-1.7c0-0.9-0.7-1.7-1.7-1.7
	c0,0,0,0,0,0H28.3c-0.9,0-1.7,0.7-1.7,1.7C26.7,22.6,27.4,23.3,28.3,23.3z M28.3,33.3h43.3c0.9,0,1.7-0.7,1.7-1.7
	c0-0.9-0.7-1.7-1.7-1.7H28.3c-0.9,0-1.7,0.7-1.7,1.7C26.7,32.6,27.4,33.3,28.3,33.3z M58.3,36.7c-3.8,0-7.5,1.2-10.6,3.3H28.3
	c-0.9,0-1.7,0.7-1.7,1.7s0.7,1.7,1.7,1.7h15.8c-1.6,2-2.8,4.2-3.5,6.7H28.3c-0.9,0-1.7,0.7-1.7,1.7s0.7,1.7,1.7,1.7h11.7
	C40,53.9,40,54.4,40,55c0,1.7,0.2,3.4,0.7,5H28.3c-0.9,0-1.7,0.7-1.7,1.7s0.7,1.7,1.7,1.7H42c4.6,9,15.6,12.6,24.6,8.1
	s12.6-15.6,8.1-24.6C71.6,40.5,65.3,36.7,58.3,36.7z M58.3,70c-8.2,0-15-6.6-15-14.9c0,0,0-0.1,0-0.1c0-0.9,0.1-1.9,0.3-2.8
	c0-0.1,0.1-0.2,0.1-0.3c0.7-3.5,2.7-6.6,5.5-8.8c0.1-0.1,0.3-0.2,0.4-0.3c6.7-4.9,16.1-3.4,21,3.3c4.9,6.7,3.4,16.1-3.3,21
	C64.6,69,61.5,70,58.3,70L58.3,70z M67.5,46.8c-0.7-0.5-1.7-0.3-2.3,0.4c0,0-0.1,0.1-0.1,0.1l-8.8,13.3l-5.2-5.2
	c-0.6-0.6-1.7-0.6-2.3,0s-0.6,1.7,0,2.3l6.7,6.7c0.3,0.3,0.7,0.5,1.2,0.5c0.6,0,1.1-0.3,1.3-0.8l10-15
	C68.5,48.4,68.3,47.4,67.5,46.8C67.6,46.9,67.5,46.9,67.5,46.8z"/>
</svg>
