<svg id="Payment" xmlns="http://www.w3.org/2000/svg" viewBox="0 0 18 18"><defs><style>.cls-1{fill:#ffce04;}</style></defs><title>payment</title><g id="Group_403" data-name="Group 403"><g id="Group_404" data-name="Group 404"><g id="Group_403-2" data-name="Group 403-2"><path id="Path_4970" data-name="Path 4970" class="cls-1" d="M16.62,6.88l-5.1-5.11a1.87,1.87,0,0,0-1-.4,1.54,1.54,0,0,0-1,.4l-8,8a1.63,1.63,0,0,0-.5,1.1,1.54,1.54,0,0,0,.4,1l.6.6H2l4.21,4.21h-.5a.29.29,0,0,0-.3.3.3.3,0,0,0,.3.3h6.61a.31.31,0,0,0,.3-.3.3.3,0,0,0-.3-.3H8.81l7.81-7.81A1.52,1.52,0,0,0,16.62,6.88Zm-.5,1.6-8,8a.83.83,0,0,1-.6.2h0a1.42,1.42,0,0,1-.6-.2L2.7,12.29l7.71-7.72a.42.42,0,0,0,0-.5.29.29,0,0,0-.39,0L2.3,11.78l-.4-.4c-.2-.1-.2-.3-.2-.5a1.47,1.47,0,0,1,.2-.6l8-8a.89.89,0,0,1,.6-.2,1.38,1.38,0,0,1,.6.2l1.8,1.8-7.7,7.71a.45.45,0,0,0,0,.5.3.3,0,0,0,.2.1c.1,0,.2,0,.2-.1l7.71-7.71,2.8,2.8a.79.79,0,0,1,0,1.11Z"/><path id="Path_4971" data-name="Path 4971" class="cls-1" d="M9.21,11a.45.45,0,0,0-.5,0l-2.6,2.6a.45.45,0,0,0,0,.5.26.26,0,0,0,.2.1c.1,0,.2,0,.2-.1l2.6-2.6C9.31,11.38,9.31,11.18,9.21,11Z"/><path id="Path_4972" data-name="Path 4972" class="cls-1" d="M8.11,13.49,7,14.59a.45.45,0,0,0,0,.5.35.35,0,0,0,.2.1c.1,0,.2,0,.2-.1L8.51,14a.45.45,0,0,0,0-.5C8.41,13.29,8.31,13.39,8.11,13.49Z"/><path id="Path_4973" data-name="Path 4973" class="cls-1" d="M9.11,12.49l-.1.2a.45.45,0,0,0,0,.5.38.38,0,0,0,.2.1s.2,0,.2-.1l.1-.1a.45.45,0,0,0,0-.5C9.51,12.39,9.31,12.39,9.11,12.49Z"/><path id="Path_4974" data-name="Path 4974" class="cls-1" d="M13.72,6.48a.35.35,0,0,0-.2-.1c-.1,0-.2,0-.2.1l-1.4,1.4c-.1.1-.1.1-.1.2s0,.2.1.2l.9.9c0,.2.1.2.2.2s.2,0,.2-.1l1.4-1.4a.45.45,0,0,0,0-.5ZM13,8.58l-.5-.5.9-.9.6.5Z"/><path id="Path_4975" data-name="Path 4975" class="cls-1" d="M11,3.87c.11,0,.2,0,.2-.1l.11-.1a.45.45,0,0,0,0-.5.45.45,0,0,0-.5,0v.1a.42.42,0,0,0,0,.5C10.82,3.87,10.91,3.87,11,3.87Z"/><path id="Path_4976" data-name="Path 4976" class="cls-1" d="M4.41,12.59l-.1.1a.42.42,0,0,0,0,.5.35.35,0,0,0,.2.1s.2,0,.2-.1l.1-.1a.45.45,0,0,0,0-.5A.28.28,0,0,0,4.41,12.59Z"/></g></g></g></svg>