<svg xmlns="http://www.w3.org/2000/svg" xmlns:xlink="http://www.w3.org/1999/xlink" viewBox="0 0 100 100"><defs><style>.cls-1{fill:url(#linear-gradient);}.cls-2{fill:none;}</style><linearGradient id="linear-gradient" x1="-389.23" y1="353.73" x2="-389.23" y2="352.82" gradientTransform="matrix(110.01, 0, 0, -92.22, 42868.62, 32629.03)" gradientUnits="userSpaceOnUse"><stop offset="0" stop-color="#ed1c24"/><stop offset="1" stop-color="#ffcd00"/></linearGradient></defs><title>complaintsvg</title><g id="complaint"><g id="Group_555" data-name="Group 555"><g id="Group_89" data-name="Group 89"><path id="Path_1678" data-name="Path 1678" class="cls-1" d="M99.19,31.64,86.82,19.27a1.92,1.92,0,0,0-2.73-.07l-.06.07L67.46,36V10.09a2,2,0,0,0-2-2H16.17a.19.19,0,0,0-.2.19h0l-.2.2h0L.4,23.65h0l-.2.2h0a.19.19,0,0,1-.19.2H0v.2H0v.2H0v.2H0V89.91a2,2,0,0,0,2,2H65.67a2,2,0,0,0,2-2V66L99.4,34.23a1.8,1.8,0,0,0,.6-1.4A4.18,4.18,0,0,1,99.19,31.64ZM66.86,42,85.42,23.45l3.39,3.4L52.09,63.57l-3.4-3.39ZM54.49,71.55l-10.18,2.8L47.1,64.17,50.89,68h0ZM14.77,14.67v8.18H6.59Zm48.7,73.25H3.79V26.85h13a2,2,0,0,0,2-2h0V12.08h44.9V40l-19,19h0l-.2.2h0l-.2.2h0v.2h0v.2h0l-.6.8H18a2,2,0,0,0,0,4H42.71L39.92,75H18a2,2,0,0,0,0,4H41.71l16.77-4.59h.4a.21.21,0,0,0,.2-.19h0a.21.21,0,0,0,.2-.19h0l3.79-3.8.4,17.77Zm.6-24h0l-5.79,5.79-3.39-3.4L91.61,29.64,95,33ZM44.91,31.84H18a2,2,0,0,0,0,4H44.91a2,2,0,0,0,2-2h0A2.15,2.15,0,0,0,44.91,31.84Zm7,14.37H18a2,2,0,1,0-.25,4H51.89a2,2,0,0,0,2-2h0a2.31,2.31,0,0,0-2-2Zm0-14.37a2,2,0,0,0,0,4c2.4,0,2.4-4,0-4Z"/></g></g></g><g id="Layer_7" data-name="Layer 7"><rect class="cls-2" width="100" height="100"/></g></svg>