<svg id="recent" xmlns="http://www.w3.org/2000/svg" viewBox="0 0 18 18"><defs><style>.cls-1{fill:#ffce04;}</style></defs><title>recent</title><g id="Group_560" data-name="Group 560"><g id="Group_561" data-name="Group 561"><g id="Group_560-2" data-name="Group 560-2"><path id="Path_5004" data-name="Path 5004" class="cls-1" d="M1,9A8,8,0,1,0,4.94,2.11l-1-1a.46.46,0,0,0-.66,0,.44.44,0,0,0-.14.34V3.71a.47.47,0,0,0,.47.47H5.88a.48.48,0,0,0,.44-.29.48.48,0,0,0-.1-.51l-.59-.59A7.06,7.06,0,1,1,1.94,9,.47.47,0,0,0,1,9H1Z"/></g></g><g id="Group_563" data-name="Group 563"><g id="Group_562" data-name="Group 562"><path id="Path_5005" data-name="Path 5005" class="cls-1" d="M12.68,8.43H9.57V5.32A.58.58,0,0,0,9,4.75a.57.57,0,0,0-.57.57V9A.56.56,0,0,0,9,9.57h3.68A.57.57,0,0,0,13.25,9a.58.58,0,0,0-.57-.57Z"/></g></g></g></svg>