<svg xmlns="http://www.w3.org/2000/svg" xmlns:xlink="http://www.w3.org/1999/xlink" viewBox="0 0 100 100"><defs><style>.cls-1{fill:url(#linear-gradient);}.cls-2{fill:none;}</style><linearGradient id="linear-gradient" x1="-402.57" y1="350.66" x2="-402.57" y2="349.75" gradientTransform="matrix(73.26, 0, 0, -100.01, 29543.19, 35069.8)" gradientUnits="userSpaceOnUse"><stop offset="0" stop-color="#ed1c24"/><stop offset="1" stop-color="#ffcd00"/></linearGradient></defs><title>travel</title><g id="travel"><g id="Group_553" data-name="Group 553"><path id="Path_1675" data-name="Path 1675" class="cls-1" d="M86.5,97.54a.48.48,0,0,0-.12-.22L73,71.75h4.48a4,4,0,0,0,4.19-3.84V10.69a4,4,0,0,0-4.19-3.84H66.22V1.78A1.87,1.87,0,0,0,64.28,0H35.58a1.87,1.87,0,0,0-1.94,1.78V6.87H22.37a4,4,0,0,0-4.19,3.84V67.93a4,4,0,0,0,4.19,3.84h4.49L13.53,97.32a1.71,1.71,0,0,0,.87,2.28l0,0A2,2,0,0,0,17,98.87l1.52-3h62.8l1.6,3a2,2,0,0,0,2.52,1,1.77,1.77,0,0,0,1.13-2.23A.3.3,0,0,0,86.5,97.54ZM77.83,46H51.89V25.35H77.83ZM37.52,3.55H62.34V6.88H37.52ZM22.06,10.69a.32.32,0,0,1,.31-.29H77.51a.32.32,0,0,1,.32.29V21.8H22.06Zm0,14.66H48V46l-25.93-.09Zm.31,42.84a.3.3,0,0,1-.31-.28V49.55H77.83V67.91a.32.32,0,0,1-.32.29Zm47.9,6.46H29.64l1.5-2.89h37.6ZM20.43,92.26l7.37-14.2H72.11l7.36,14.2ZM34.51,53.05a5.48,5.48,0,1,0-1,10.91,5.13,5.13,0,0,0,1,0,5.48,5.48,0,1,0,1-10.91A5.24,5.24,0,0,0,34.51,53.05Zm0,7.39a1.92,1.92,0,1,1,2.09-1.91A2,2,0,0,1,34.51,60.44Zm30.81-7.39a5.49,5.49,0,1,0,5.94,5.5v0A5.73,5.73,0,0,0,65.32,53.05Zm0,7.39a1.93,1.93,0,1,1,2.06-2v.05A2,2,0,0,1,65.32,60.44Z"/></g></g><g id="Layer_7" data-name="Layer 7"><rect class="cls-2" width="100" height="100"/></g></svg>